<?xml version="1.0" encoding="UTF-8"?>
<svg id="Layer_5" data-name="Layer 5" xmlns="http://www.w3.org/2000/svg" viewBox="0 0 34 34">
  <defs>
    <style>
      .cls-1 {
        fill: #efc100;
      }

      .cls-1, .cls-2 {
        stroke-width: 0px;
      }

      .cls-2 {
        fill: #ffe000;
      }
    </style>
  </defs>
  <rect class="cls-2" x="24.28" y="32.9" width="1.1" height="1.1"/>
  <rect class="cls-2" x="22.08" y="32.9" width="1.1" height="1.1"/>
  <rect class="cls-2" x="20.99" y="32.9" width="1.1" height="1.1"/>
  <rect class="cls-2" x="19.89" y="32.9" width="1.1" height="1.1"/>
  <rect class="cls-2" x="15.5" y="32.9" width="1.1" height="1.1"/>
  <rect class="cls-2" x="14.41" y="32.9" width="1.1" height="1.1"/>
  <rect class="cls-2" x="13.31" y="32.9" width="1.1" height="1.1"/>
  <rect class="cls-2" x="12.21" y="32.9" width="1.1" height="1.1"/>
  <rect class="cls-2" x="10.02" y="32.9" width="1.1" height="1.1"/>
  <rect class="cls-2" x="14.41" y="31.81" width="1.1" height="1.1"/>
  <rect class="cls-2" x="24.28" y="29.61" width="1.1" height="1.1"/>
  <rect class="cls-2" x="20.99" y="29.61" width="1.1" height="1.1"/>
  <rect class="cls-2" x="14.41" y="29.61" width="1.1" height="1.1"/>
  <rect class="cls-2" x="23.18" y="27.42" width="1.1" height="1.1"/>
  <rect class="cls-2" x="22.08" y="27.42" width="1.1" height="1.1"/>
  <rect class="cls-2" x="20.99" y="27.42" width="1.1" height="1.1"/>
  <rect class="cls-2" x="19.89" y="27.42" width="1.1" height="1.1"/>
  <rect class="cls-2" x="17.7" y="27.42" width="1.1" height="1.1"/>
  <rect class="cls-2" x="16.6" y="27.42" width="1.1" height="1.1"/>
  <rect class="cls-2" x="15.5" y="27.42" width="1.1" height="1.1"/>
  <rect class="cls-2" x="14.41" y="27.42" width="1.1" height="1.1"/>
  <rect class="cls-2" x="13.31" y="27.42" width="1.1" height="1.1"/>
  <rect class="cls-2" x="12.21" y="27.42" width="1.1" height="1.1"/>
  <rect class="cls-2" x="11.11" y="27.42" width="1.1" height="1.1"/>
  <rect class="cls-2" x="10.02" y="26.32" width="1.1" height="1.1"/>
  <rect class="cls-2" x="7.82" y="20.84" width="1.1" height="1.1"/>
  <rect class="cls-2" x="10.02" y="16.45" width="1.1" height="1.1"/>
  <rect class="cls-2" x="18.79" y="27.42" width="1.1" height="1.1"/>
  <rect class="cls-2" x="24.28" y="26.32" width="1.1" height="1.1"/>
  <rect class="cls-2" x="23.18" y="26.32" width="1.1" height="1.1"/>
  <rect class="cls-2" x="11.11" y="26.32" width="1.1" height="1.1"/>
  <rect class="cls-2" x="20.99" y="25.23" width="1.1" height="1.1"/>
  <rect class="cls-2" x="24.28" y="24.13" width="1.1" height="1.1"/>
  <rect class="cls-2" x="22.08" y="24.13" width="1.1" height="1.1"/>
  <rect class="cls-2" x="15.5" y="24.13" width="1.1" height="1.1"/>
  <rect class="cls-2" x="14.41" y="24.13" width="1.1" height="1.1"/>
  <rect class="cls-2" x="7.82" y="21.94" width="1.1" height="1.1"/>
  <rect class="cls-2" x="11.11" y="16.45" width="1.1" height="1.1"/>
  <rect class="cls-2" x="11.11" y="15.35" width="1.1" height="1.1"/>
  <rect class="cls-2" x="25.37" y="14.26" width="1.1" height="1.1"/>
  <rect class="cls-2" x="11.11" y="14.26" width="1.1" height="1.1"/>
  <rect class="cls-2" x="22.08" y="13.16" width="1.1" height="1.1"/>
  <rect class="cls-2" x="20.99" y="13.16" width="1.1" height="1.1"/>
  <rect class="cls-2" x="19.89" y="13.16" width="1.1" height="1.1"/>
  <rect class="cls-1" x="18.79" y="13.16" width="1.1" height="1.1"/>
  <rect class="cls-2" x="12.21" y="13.16" width="1.1" height="1.1"/>
  <rect class="cls-2" x="11.11" y="13.16" width="1.1" height="1.1"/>
  <rect class="cls-2" x="25.37" y="23.03" width="1.1" height="1.1"/>
  <rect class="cls-2" x="16.6" y="23.03" width="1.1" height="1.1"/>
  <rect class="cls-2" x="24.28" y="16.45" width="1.1" height="1.1"/>
  <rect class="cls-2" x="16.6" y="16.45" width="1.1" height="1.1"/>
  <rect class="cls-2" x="25.37" y="15.35" width="1.1" height="1.1"/>
  <rect class="cls-2" x="16.6" y="15.35" width="1.1" height="1.1"/>
  <g>
    <rect class="cls-2" x="11.11" y="30.71" width="1.1" height="1.1"/>
    <rect class="cls-2" x="18.79" y="19.74" width="1.1" height="1.1"/>
    <rect class="cls-2" x="16.6" y="19.74" width="1.1" height="1.1"/>
    <rect class="cls-2" x="15.5" y="19.74" width="1.1" height="1.1"/>
    <rect class="cls-2" x="15.5" y="18.65" width="1.1" height="1.1"/>
    <rect class="cls-2" x="12.21" y="18.65" width="1.1" height="1.1"/>
    <rect class="cls-2" x="14.41" y="16.45" width="1.1" height="1.1"/>
    <rect class="cls-2" x="8.92" y="16.45" width="1.1" height="1.1"/>
    <rect class="cls-2" x="15.5" y="14.26" width="1.1" height="1.1"/>
  </g>
  <rect class="cls-2" x="23.18" y="32.9" width="1.1" height="1.1"/>
  <rect class="cls-2" x="17.7" y="32.9" width="1.1" height="1.1"/>
  <rect class="cls-2" x="10.02" y="29.61" width="1.1" height="1.1"/>
  <rect class="cls-2" x="8.92" y="23.03" width="1.1" height="1.1"/>
  <rect class="cls-2" x="17.7" y="12.06" width="1.1" height="1.1"/>
  <rect class="cls-2" x="18.79" y="32.9" width="1.1" height="1.1"/>
  <rect class="cls-2" x="16.6" y="32.9" width="1.1" height="1.1"/>
  <rect class="cls-2" x="11.11" y="32.9" width="1.1" height="1.1"/>
  <rect class="cls-2" x="24.28" y="31.81" width="1.1" height="1.1"/>
  <rect class="cls-2" x="23.18" y="31.81" width="1.1" height="1.1"/>
  <rect class="cls-2" x="22.08" y="31.81" width="1.1" height="1.1"/>
  <rect class="cls-2" x="20.99" y="31.81" width="1.1" height="1.1"/>
  <rect class="cls-2" x="19.89" y="31.81" width="1.1" height="1.1"/>
  <rect class="cls-2" x="18.79" y="31.81" width="1.1" height="1.1"/>
  <rect class="cls-2" x="17.7" y="31.81" width="1.1" height="1.1"/>
  <rect class="cls-2" x="16.6" y="31.81" width="1.1" height="1.1"/>
  <rect class="cls-2" x="15.5" y="31.81" width="1.1" height="1.1"/>
  <rect class="cls-2" x="13.31" y="31.81" width="1.1" height="1.1"/>
  <rect class="cls-2" x="12.21" y="31.81" width="1.1" height="1.1"/>
  <rect class="cls-2" x="11.11" y="31.81" width="1.1" height="1.1"/>
  <rect class="cls-2" x="10.02" y="31.81" width="1.1" height="1.1"/>
  <rect class="cls-2" x="24.28" y="30.71" width="1.1" height="1.1"/>
  <rect class="cls-2" x="23.18" y="30.71" width="1.1" height="1.1"/>
  <rect class="cls-2" x="22.08" y="30.71" width="1.1" height="1.1"/>
  <rect class="cls-2" x="20.99" y="30.71" width="1.1" height="1.1"/>
  <rect class="cls-2" x="19.89" y="30.71" width="1.1" height="1.1"/>
  <rect class="cls-2" x="18.79" y="30.71" width="1.1" height="1.1"/>
  <rect class="cls-2" x="17.7" y="30.71" width="1.1" height="1.1"/>
  <rect class="cls-2" x="16.6" y="30.71" width="1.1" height="1.1"/>
  <rect class="cls-2" x="15.5" y="30.71" width="1.1" height="1.1"/>
  <rect class="cls-2" x="14.41" y="30.71" width="1.1" height="1.1"/>
  <rect class="cls-2" x="13.31" y="30.71" width="1.1" height="1.1"/>
  <rect class="cls-2" x="12.21" y="30.71" width="1.1" height="1.1"/>
  <rect class="cls-2" x="10.02" y="30.71" width="1.1" height="1.1"/>
  <rect class="cls-2" x="23.18" y="29.61" width="1.1" height="1.1"/>
  <rect class="cls-2" x="22.08" y="29.61" width="1.1" height="1.1"/>
  <rect class="cls-2" x="19.89" y="29.61" width="1.1" height="1.1"/>
  <rect class="cls-2" x="18.79" y="29.61" width="1.1" height="1.1"/>
  <rect class="cls-2" x="17.7" y="29.61" width="1.1" height="1.1"/>
  <rect class="cls-2" x="16.6" y="29.61" width="1.1" height="1.1"/>
  <rect class="cls-2" x="15.5" y="29.61" width="1.1" height="1.1"/>
  <rect class="cls-2" x="13.31" y="29.61" width="1.1" height="1.1"/>
  <rect class="cls-2" x="12.21" y="29.61" width="1.1" height="1.1"/>
  <rect class="cls-2" x="11.11" y="29.61" width="1.1" height="1.1"/>
  <rect class="cls-2" x="22.08" y="26.32" width="1.1" height="1.1"/>
  <rect class="cls-2" x="20.99" y="26.32" width="1.1" height="1.1"/>
  <rect class="cls-2" x="19.89" y="26.32" width="1.1" height="1.1"/>
  <rect class="cls-2" x="18.79" y="26.32" width="1.1" height="1.1"/>
  <rect class="cls-2" x="17.7" y="26.32" width="1.1" height="1.1"/>
  <rect class="cls-2" x="16.6" y="26.32" width="1.1" height="1.1"/>
  <rect class="cls-2" x="15.5" y="26.32" width="1.1" height="1.1"/>
  <rect class="cls-2" x="14.41" y="26.32" width="1.1" height="1.1"/>
  <rect class="cls-2" x="13.31" y="26.32" width="1.1" height="1.1"/>
  <rect class="cls-2" x="12.21" y="26.32" width="1.1" height="1.1"/>
  <rect class="cls-2" x="24.28" y="25.23" width="1.1" height="1.1"/>
  <rect class="cls-2" x="23.18" y="25.23" width="1.1" height="1.1"/>
  <rect class="cls-2" x="22.08" y="25.23" width="1.1" height="1.1"/>
  <rect class="cls-2" x="19.89" y="25.23" width="1.1" height="1.1"/>
  <rect class="cls-2" x="18.79" y="25.23" width="1.1" height="1.1"/>
  <rect class="cls-2" x="17.7" y="25.23" width="1.1" height="1.1"/>
  <rect class="cls-2" x="16.6" y="25.23" width="1.1" height="1.1"/>
  <rect class="cls-2" x="15.5" y="25.23" width="1.1" height="1.1"/>
  <rect class="cls-2" x="14.41" y="25.23" width="1.1" height="1.1"/>
  <rect class="cls-2" x="13.31" y="25.23" width="1.1" height="1.1"/>
  <rect class="cls-2" x="12.21" y="25.23" width="1.1" height="1.1"/>
  <rect class="cls-2" x="11.11" y="25.23" width="1.1" height="1.1"/>
  <rect class="cls-2" x="10.02" y="25.23" width="1.1" height="1.1"/>
  <rect class="cls-2" x="23.18" y="24.13" width="1.1" height="1.1"/>
  <rect class="cls-2" x="20.99" y="24.13" width="1.1" height="1.1"/>
  <rect class="cls-2" x="19.89" y="24.13" width="1.1" height="1.1"/>
  <rect class="cls-2" x="18.79" y="24.13" width="1.1" height="1.1"/>
  <rect class="cls-2" x="17.7" y="24.13" width="1.1" height="1.1"/>
  <rect class="cls-2" x="16.6" y="24.13" width="1.1" height="1.1"/>
  <rect class="cls-2" x="13.31" y="24.13" width="1.1" height="1.1"/>
  <rect class="cls-2" x="12.21" y="24.13" width="1.1" height="1.1"/>
  <rect class="cls-2" x="11.11" y="24.13" width="1.1" height="1.1"/>
  <rect class="cls-2" x="10.02" y="24.13" width="1.1" height="1.1"/>
  <rect class="cls-2" x="24.28" y="23.03" width="1.1" height="1.1"/>
  <rect class="cls-2" x="23.18" y="23.03" width="1.1" height="1.1"/>
  <rect class="cls-2" x="22.08" y="23.03" width="1.1" height="1.1"/>
  <rect class="cls-2" x="20.99" y="23.03" width="1.1" height="1.1"/>
  <rect class="cls-2" x="19.89" y="23.03" width="1.1" height="1.1"/>
  <rect class="cls-2" x="18.79" y="23.03" width="1.1" height="1.1"/>
  <rect class="cls-2" x="17.7" y="23.03" width="1.1" height="1.1"/>
  <rect class="cls-2" x="15.5" y="23.03" width="1.1" height="1.1"/>
  <rect class="cls-2" x="14.41" y="23.03" width="1.1" height="1.1"/>
  <rect class="cls-2" x="13.31" y="23.03" width="1.1" height="1.1"/>
  <rect class="cls-2" x="12.21" y="23.03" width="1.1" height="1.1"/>
  <rect class="cls-2" x="11.11" y="23.03" width="1.1" height="1.1"/>
  <rect class="cls-2" x="10.02" y="23.03" width="1.1" height="1.1"/>
  <rect class="cls-2" x="25.37" y="21.94" width="1.1" height="1.1"/>
  <rect class="cls-2" x="24.28" y="21.94" width="1.1" height="1.1"/>
  <rect class="cls-2" x="23.18" y="21.94" width="1.1" height="1.1"/>
  <rect class="cls-2" x="22.08" y="21.94" width="1.1" height="1.1"/>
  <rect class="cls-2" x="20.99" y="21.94" width="1.1" height="1.1"/>
  <rect class="cls-2" x="19.89" y="21.94" width="1.1" height="1.1"/>
  <rect class="cls-2" x="18.79" y="21.94" width="1.1" height="1.1"/>
  <rect class="cls-2" x="17.7" y="21.94" width="1.1" height="1.1"/>
  <rect class="cls-2" x="16.6" y="21.94" width="1.1" height="1.1"/>
  <rect class="cls-2" x="15.5" y="21.94" width="1.1" height="1.1"/>
  <rect class="cls-2" x="14.41" y="21.94" width="1.1" height="1.1"/>
  <rect class="cls-2" x="13.31" y="21.94" width="1.1" height="1.1"/>
  <rect class="cls-2" x="12.21" y="21.94" width="1.1" height="1.1"/>
  <rect class="cls-2" x="11.11" y="21.94" width="1.1" height="1.1"/>
  <rect class="cls-2" x="10.02" y="21.94" width="1.1" height="1.1"/>
  <rect class="cls-2" x="8.92" y="21.94" width="1.1" height="1.1"/>
  <rect class="cls-2" x="25.37" y="20.84" width="1.1" height="1.1"/>
  <rect class="cls-2" x="24.28" y="20.84" width="1.1" height="1.1"/>
  <rect class="cls-2" x="23.18" y="20.84" width="1.1" height="1.1"/>
  <rect class="cls-2" x="22.08" y="20.84" width="1.1" height="1.1"/>
  <rect class="cls-2" x="20.99" y="20.84" width="1.1" height="1.1"/>
  <rect class="cls-2" x="19.89" y="20.84" width="1.1" height="1.1"/>
  <rect class="cls-2" x="18.79" y="20.84" width="1.1" height="1.1"/>
  <rect class="cls-2" x="17.7" y="20.84" width="1.1" height="1.1"/>
  <rect class="cls-2" x="16.6" y="20.84" width="1.1" height="1.1"/>
  <rect class="cls-2" x="15.5" y="20.84" width="1.1" height="1.1"/>
  <rect class="cls-2" x="14.41" y="20.84" width="1.1" height="1.1"/>
  <rect class="cls-2" x="13.31" y="20.84" width="1.1" height="1.1"/>
  <rect class="cls-2" x="12.21" y="20.84" width="1.1" height="1.1"/>
  <rect class="cls-2" x="11.11" y="20.84" width="1.1" height="1.1"/>
  <rect class="cls-2" x="10.02" y="20.84" width="1.1" height="1.1"/>
  <rect class="cls-2" x="8.92" y="20.84" width="1.1" height="1.1"/>
  <rect class="cls-2" x="25.37" y="19.74" width="1.1" height="1.1"/>
  <rect class="cls-2" x="24.28" y="19.74" width="1.1" height="1.1"/>
  <rect class="cls-2" x="23.18" y="19.74" width="1.1" height="1.1"/>
  <rect class="cls-2" x="22.08" y="19.74" width="1.1" height="1.1"/>
  <rect class="cls-2" x="20.99" y="19.74" width="1.1" height="1.1"/>
  <rect class="cls-2" x="19.89" y="19.74" width="1.1" height="1.1"/>
  <rect class="cls-2" x="17.7" y="19.74" width="1.1" height="1.1"/>
  <rect class="cls-2" x="14.41" y="19.74" width="1.1" height="1.1"/>
  <rect class="cls-2" x="13.31" y="19.74" width="1.1" height="1.1"/>
  <rect class="cls-2" x="12.21" y="19.74" width="1.1" height="1.1"/>
  <rect class="cls-2" x="11.11" y="19.74" width="1.1" height="1.1"/>
  <rect class="cls-2" x="10.02" y="19.74" width="1.1" height="1.1"/>
  <rect class="cls-2" x="8.92" y="19.74" width="1.1" height="1.1"/>
  <rect class="cls-2" x="7.82" y="19.74" width="1.1" height="1.1"/>
  <rect class="cls-2" x="25.37" y="18.65" width="1.1" height="1.1"/>
  <rect class="cls-2" x="24.28" y="18.65" width="1.1" height="1.1"/>
  <rect class="cls-2" x="23.18" y="18.65" width="1.1" height="1.1"/>
  <rect class="cls-2" x="22.08" y="18.65" width="1.1" height="1.1"/>
  <rect class="cls-2" x="20.99" y="18.65" width="1.1" height="1.1"/>
  <rect class="cls-2" x="19.89" y="18.65" width="1.1" height="1.1"/>
  <rect class="cls-2" x="18.79" y="18.65" width="1.1" height="1.1"/>
  <rect class="cls-2" x="17.7" y="18.65" width="1.1" height="1.1"/>
  <rect class="cls-2" x="16.6" y="18.65" width="1.1" height="1.1"/>
  <rect class="cls-2" x="14.41" y="18.65" width="1.1" height="1.1"/>
  <rect class="cls-2" x="13.31" y="18.65" width="1.1" height="1.1"/>
  <rect class="cls-2" x="11.11" y="18.65" width="1.1" height="1.1"/>
  <rect class="cls-2" x="10.02" y="18.65" width="1.1" height="1.1"/>
  <rect class="cls-2" x="8.92" y="18.65" width="1.1" height="1.1"/>
  <rect class="cls-2" x="7.82" y="18.65" width="1.1" height="1.1"/>
  <rect class="cls-2" x="25.37" y="17.55" width="1.1" height="1.1"/>
  <rect class="cls-2" x="24.28" y="17.55" width="1.1" height="1.1"/>
  <rect class="cls-2" x="23.18" y="17.55" width="1.1" height="1.1"/>
  <rect class="cls-1" x="22.08" y="17.55" width="1.1" height="1.1"/>
  <rect class="cls-2" x="20.99" y="17.55" width="1.1" height="1.1"/>
  <rect class="cls-2" x="19.89" y="17.55" width="1.1" height="1.1"/>
  <rect class="cls-2" x="18.79" y="17.55" width="1.1" height="1.1"/>
  <rect class="cls-1" x="17.7" y="17.55" width="1.1" height="1.1"/>
  <rect class="cls-2" x="16.6" y="17.55" width="1.1" height="1.1"/>
  <rect class="cls-2" x="15.5" y="17.55" width="1.1" height="1.1"/>
  <rect class="cls-2" x="14.41" y="17.55" width="1.1" height="1.1"/>
  <rect class="cls-1" x="13.31" y="17.55" width="1.1" height="1.1"/>
  <rect class="cls-2" x="12.21" y="17.55" width="1.1" height="1.1"/>
  <rect class="cls-2" x="11.11" y="17.55" width="1.1" height="1.1"/>
  <rect class="cls-2" x="10.02" y="17.55" width="1.1" height="1.1"/>
  <rect class="cls-2" x="8.92" y="17.55" width="1.1" height="1.1"/>
  <rect class="cls-2" x="7.82" y="17.55" width="1.1" height="1.1"/>
  <rect class="cls-2" x="25.37" y="16.45" width="1.1" height="1.1"/>
  <rect class="cls-2" x="23.18" y="16.45" width="1.1" height="1.1"/>
  <rect class="cls-1" x="22.08" y="16.45" width="1.1" height="1.1"/>
  <rect class="cls-2" x="20.99" y="16.45" width="1.1" height="1.1"/>
  <rect class="cls-2" x="19.89" y="16.45" width="1.1" height="1.1"/>
  <rect class="cls-2" x="18.79" y="16.45" width="1.1" height="1.1"/>
  <rect class="cls-1" x="17.7" y="16.45" width="1.1" height="1.1"/>
  <rect class="cls-2" x="15.5" y="16.45" width="1.1" height="1.1"/>
  <rect class="cls-1" x="13.31" y="16.45" width="1.1" height="1.1"/>
  <rect class="cls-2" x="12.21" y="16.45" width="1.1" height="1.1"/>
  <rect class="cls-2" x="24.28" y="15.35" width="1.1" height="1.1"/>
  <rect class="cls-1" x="23.18" y="15.35" width="1.1" height="1.1"/>
  <rect class="cls-2" x="22.08" y="15.35" width="1.1" height="1.1"/>
  <rect class="cls-2" x="20.99" y="15.35" width="1.1" height="1.1"/>
  <rect class="cls-2" x="19.89" y="15.35" width="1.1" height="1.1"/>
  <rect class="cls-2" x="18.79" y="15.35" width="1.1" height="1.1"/>
  <rect class="cls-1" x="17.7" y="15.35" width="1.1" height="1.1"/>
  <rect class="cls-2" x="15.5" y="15.35" width="1.1" height="1.1"/>
  <rect class="cls-2" x="14.41" y="15.35" width="1.1" height="1.1"/>
  <rect class="cls-1" x="13.31" y="15.35" width="1.1" height="1.1"/>
  <rect class="cls-2" x="12.21" y="15.35" width="1.1" height="1.1"/>
  <rect class="cls-2" x="24.28" y="14.26" width="1.1" height="1.1"/>
  <rect class="cls-1" x="23.18" y="14.26" width="1.1" height="1.1"/>
  <rect class="cls-2" x="22.08" y="14.26" width="1.1" height="1.1"/>
  <rect class="cls-2" x="20.99" y="14.26" width="1.1" height="1.1"/>
  <rect class="cls-2" x="19.89" y="14.26" width="1.1" height="1.1"/>
  <rect class="cls-1" x="18.79" y="14.26" width="1.1" height="1.1"/>
  <rect class="cls-2" x="17.7" y="14.26" width="1.1" height="1.1"/>
  <rect class="cls-2" x="16.6" y="14.26" width="1.1" height="1.1"/>
  <rect class="cls-2" x="14.41" y="14.26" width="1.1" height="1.1"/>
  <rect class="cls-1" x="13.31" y="14.26" width="1.1" height="1.1"/>
  <rect class="cls-2" x="12.21" y="14.26" width="1.1" height="1.1"/>
  <rect class="cls-2" x="17.7" y="13.16" width="1.1" height="1.1"/>
  <rect class="cls-2" x="16.6" y="13.16" width="1.1" height="1.1"/>
  <rect class="cls-2" x="15.5" y="13.16" width="1.1" height="1.1"/>
  <rect class="cls-2" x="14.41" y="13.16" width="1.1" height="1.1"/>
  <rect class="cls-1" x="13.31" y="13.16" width="1.1" height="1.1"/>
  <rect class="cls-2" x="16.6" y="12.06" width="1.1" height="1.1"/>
</svg>