<?xml version="1.0" encoding="UTF-8"?>
<svg id="Layer_5" data-name="Layer 5" xmlns="http://www.w3.org/2000/svg" viewBox="0 0 202.67 330.67">
  <defs>
    <style>
      .cls-1 {
        fill: #212021;
      }

      .cls-1, .cls-2, .cls-3, .cls-4, .cls-5, .cls-6, .cls-7, .cls-8, .cls-9, .cls-10, .cls-11, .cls-12, .cls-13, .cls-14, .cls-15, .cls-16, .cls-17, .cls-18, .cls-19, .cls-20, .cls-21, .cls-22, .cls-23, .cls-24, .cls-25, .cls-26, .cls-27, .cls-28, .cls-29, .cls-30, .cls-31 {
        stroke-width: 0px;
      }

      .cls-2 {
        fill: #5f5c5d;
      }

      .cls-3 {
        fill: #221f20;
      }

      .cls-4 {
        fill: #605c5e;
      }

      .cls-5 {
        fill: #302d2e;
      }

      .cls-6 {
        fill: #5c5b5b;
      }

      .cls-7 {
        fill: #231d1f;
      }

      .cls-8 {
        fill: #484445;
      }

      .cls-9 {
        fill: #241d1f;
      }

      .cls-10 {
        fill: #211f20;
      }

      .cls-11 {
        fill: #535152;
      }

      .cls-12 {
        fill: #474546;
      }

      .cls-13 {
        fill: #252223;
      }

      .cls-14 {
        fill: #201e1e;
      }

      .cls-15 {
        fill: #484546;
      }

      .cls-16 {
        fill: #302c2d;
      }

      .cls-17 {
        fill: #7b797a;
      }

      .cls-18 {
        fill: #241e20;
      }

      .cls-19 {
        fill: #231e20;
      }

      .cls-20 {
        fill: #221e1f;
      }

      .cls-21 {
        fill: #221e20;
      }

      .cls-22 {
        fill: #221d1f;
      }

      .cls-23 {
        fill: #201d1e;
      }

      .cls-24 {
        fill: #201e1f;
      }

      .cls-25 {
        fill: #8b8a8b;
      }

      .cls-26 {
        fill: #474445;
      }

      .cls-27 {
        fill: #231f20;
      }

      .cls-28 {
        fill: #211e1f;
      }

      .cls-29 {
        fill: #474545;
      }

      .cls-30 {
        fill: #292627;
      }

      .cls-31 {
        fill: #4f4d4d;
      }
    </style>
  </defs>
  <rect class="cls-24" x="181.33" y="320" width="10.67" height="10.67"/>
  <rect class="cls-10" x="160" y="320" width="10.67" height="10.67"/>
  <rect class="cls-10" x="149.33" y="320" width="10.67" height="10.67"/>
  <rect class="cls-10" x="138.67" y="320" width="10.67" height="10.67"/>
  <rect class="cls-24" x="96" y="320" width="10.67" height="10.67"/>
  <rect class="cls-24" x="85.33" y="320" width="10.67" height="10.67"/>
  <rect class="cls-10" x="74.67" y="320" width="10.67" height="10.67"/>
  <rect class="cls-10" x="64" y="320" width="10.67" height="10.67"/>
  <rect class="cls-2" x="42.67" y="320" width="10.67" height="10.67"/>
  <rect class="cls-20" x="85.33" y="309.33" width="10.67" height="10.67"/>
  <rect class="cls-20" x="181.33" y="288" width="10.67" height="10.67"/>
  <rect class="cls-20" x="149.33" y="288" width="10.67" height="10.67"/>
  <rect class="cls-21" x="85.33" y="288" width="10.67" height="10.67"/>
  <rect class="cls-9" x="170.67" y="266.67" width="10.67" height="10.67"/>
  <rect class="cls-7" x="160" y="266.67" width="10.67" height="10.67"/>
  <rect class="cls-24" x="149.33" y="266.67" width="10.67" height="10.67"/>
  <rect class="cls-24" x="138.67" y="266.67" width="10.67" height="10.67"/>
  <rect class="cls-7" x="117.33" y="266.67" width="10.67" height="10.67"/>
  <rect class="cls-7" x="106.67" y="266.67" width="10.67" height="10.67"/>
  <rect class="cls-7" x="96" y="266.67" width="10.67" height="10.67"/>
  <rect class="cls-7" x="85.33" y="266.67" width="10.67" height="10.67"/>
  <rect class="cls-7" x="74.67" y="266.67" width="10.67" height="10.67"/>
  <rect class="cls-9" x="64" y="266.67" width="10.67" height="10.67"/>
  <rect class="cls-18" x="53.33" y="266.67" width="10.67" height="10.67"/>
  <rect class="cls-6" x="42.67" y="256" width="10.67" height="10.67"/>
  <rect class="cls-22" x="21.33" y="202.67" width="10.67" height="10.67"/>
  <rect class="cls-31" y="181.33" width="10.67" height="10.67"/>
  <rect class="cls-14" y="170.67" width="10.67" height="10.67"/>
  <rect class="cls-4" x="42.67" y="160" width="10.67" height="10.67"/>
  <rect class="cls-13" x="32" y="149.33" width="10.67" height="10.67"/>
  <rect class="cls-29" x="53.33" y="117.33" width="10.67" height="10.67"/>
  <rect class="cls-15" x="53.33" y="106.67" width="10.67" height="10.67"/>
  <rect class="cls-15" x="53.33" y="96" width="10.67" height="10.67"/>
  <rect class="cls-26" x="53.33" y="85.33" width="10.67" height="10.67"/>
  <rect class="cls-29" x="53.33" y="74.67" width="10.67" height="10.67"/>
  <rect class="cls-15" x="53.33" y="64" width="10.67" height="10.67"/>
  <rect class="cls-26" x="53.33" y="53.33" width="10.67" height="10.67"/>
  <rect class="cls-15" x="53.33" y="42.67" width="10.67" height="10.67"/>
  <rect class="cls-26" x="53.33" y="32" width="10.67" height="10.67"/>
  <rect class="cls-12" x="53.33" y="21.33" width="10.67" height="10.67"/>
  <rect class="cls-17" x="53.33" y="10.67" width="10.67" height="10.67"/>
  <rect class="cls-20" x="85.33" y="32" width="10.67" height="10.67"/>
  <rect class="cls-20" x="85.33" y="117.33" width="10.67" height="10.67"/>
  <rect class="cls-20" x="85.33" y="106.67" width="10.67" height="10.67"/>
  <rect class="cls-21" x="85.33" y="74.67" width="10.67" height="10.67"/>
  <rect class="cls-20" x="74.67" y="74.67" width="10.67" height="10.67"/>
  <rect class="cls-20" x="64" y="74.67" width="10.67" height="10.67"/>
  <rect class="cls-21" x="74.67" y="64" width="10.67" height="10.67"/>
  <rect class="cls-21" x="64" y="64" width="10.67" height="10.67"/>
  <rect class="cls-21" x="85.33" y="53.33" width="10.67" height="10.67"/>
  <rect class="cls-21" x="74.67" y="53.33" width="10.67" height="10.67"/>
  <rect class="cls-21" x="64" y="53.33" width="10.67" height="10.67"/>
  <rect class="cls-20" x="64" y="32" width="10.67" height="10.67"/>
  <rect class="cls-21" x="85.33" y="10.67" width="10.67" height="10.67"/>
  <rect class="cls-21" x="64" y="10.67" width="10.67" height="10.67"/>
  <rect class="cls-5" x="85.33" width="10.67" height="10.67"/>
  <rect class="cls-24" x="128" y="266.67" width="10.67" height="10.67"/>
  <rect class="cls-1" x="181.33" y="256" width="10.67" height="10.67"/>
  <rect class="cls-19" x="170.67" y="256" width="10.67" height="10.67"/>
  <rect class="cls-19" x="53.33" y="256" width="10.67" height="10.67"/>
  <rect class="cls-20" x="149.33" y="245.33" width="10.67" height="10.67"/>
  <rect class="cls-21" x="181.33" y="234.67" width="10.67" height="10.67"/>
  <rect class="cls-21" x="160" y="234.67" width="10.67" height="10.67"/>
  <rect class="cls-20" x="96" y="234.67" width="10.67" height="10.67"/>
  <rect class="cls-21" x="85.33" y="234.67" width="10.67" height="10.67"/>
  <rect class="cls-25" x="21.33" y="213.33" width="10.67" height="10.67"/>
  <rect class="cls-8" x="53.33" y="160" width="10.67" height="10.67"/>
  <rect class="cls-15" x="53.33" y="149.33" width="10.67" height="10.67"/>
  <rect class="cls-19" x="192" y="138.67" width="10.67" height="10.67"/>
  <rect class="cls-26" x="53.33" y="138.67" width="10.67" height="10.67"/>
  <rect class="cls-30" x="160" y="128" width="10.67" height="10.67"/>
  <rect class="cls-21" x="149.33" y="128" width="10.67" height="10.67"/>
  <rect class="cls-23" x="138.67" y="128" width="10.67" height="10.67"/>
  <rect class="cls-16" x="128" y="128" width="10.67" height="10.67"/>
  <rect class="cls-21" x="64" y="128" width="10.67" height="10.67"/>
  <rect class="cls-15" x="53.33" y="128" width="10.67" height="10.67"/>
  <rect class="cls-11" x="192" y="224" width="10.67" height="10.67"/>
  <rect class="cls-21" x="106.67" y="224" width="10.67" height="10.67"/>
  <rect class="cls-21" x="181.33" y="160" width="10.67" height="10.67"/>
  <rect class="cls-21" x="106.67" y="160" width="10.67" height="10.67"/>
  <rect class="cls-19" x="192" y="149.33" width="10.67" height="10.67"/>
  <rect class="cls-21" x="106.67" y="149.33" width="10.67" height="10.67"/>
  <g>
    <rect class="cls-27" x="53.33" y="298.67" width="10.67" height="10.67"/>
    <rect class="cls-27" x="128" y="192" width="10.67" height="10.67"/>
    <rect class="cls-27" x="106.67" y="192" width="10.67" height="10.67"/>
    <rect class="cls-27" x="96" y="192" width="10.67" height="10.67"/>
    <rect class="cls-27" x="96" y="181.33" width="10.67" height="10.67"/>
    <rect class="cls-27" x="64" y="181.33" width="10.67" height="10.67"/>
    <rect class="cls-27" x="85.33" y="160" width="10.67" height="10.67"/>
    <rect class="cls-27" x="32" y="160" width="10.67" height="10.67"/>
    <rect class="cls-27" x="96" y="138.67" width="10.67" height="10.67"/>
  </g>
  <g>
    <g>
      <rect class="cls-28" x="170.67" y="320" width="10.67" height="10.67"/>
      <rect class="cls-28" x="117.33" y="320" width="10.67" height="10.67"/>
      <rect class="cls-28" x="42.67" y="288" width="10.67" height="10.67"/>
      <rect class="cls-28" x="32" y="224" width="10.67" height="10.67"/>
      <rect class="cls-28" x="117.33" y="117.33" width="10.67" height="10.67"/>
      <rect class="cls-28" x="85.33" y="96" width="10.67" height="10.67"/>
      <rect class="cls-28" x="74.67" y="96" width="10.67" height="10.67"/>
      <rect class="cls-28" x="64" y="96" width="10.67" height="10.67"/>
      <rect class="cls-28" x="85.33" y="85.33" width="10.67" height="10.67"/>
      <rect class="cls-28" x="74.67" y="85.33" width="10.67" height="10.67"/>
      <rect class="cls-28" x="85.33" y="42.67" width="10.67" height="10.67"/>
      <rect class="cls-28" x="74.67" y="42.67" width="10.67" height="10.67"/>
      <rect class="cls-28" x="85.33" y="21.33" width="10.67" height="10.67"/>
      <rect class="cls-28" x="74.67" y="21.33" width="10.67" height="10.67"/>
      <rect class="cls-28" x="64" y="21.33" width="10.67" height="10.67"/>
      <rect class="cls-28" x="74.67" width="10.67" height="10.67"/>
    </g>
    <g>
      <rect class="cls-3" x="128" y="320" width="10.67" height="10.67"/>
      <rect class="cls-3" x="106.67" y="320" width="10.67" height="10.67"/>
      <rect class="cls-3" x="53.33" y="320" width="10.67" height="10.67"/>
      <rect class="cls-3" x="181.33" y="309.33" width="10.67" height="10.67"/>
      <rect class="cls-3" x="170.67" y="309.33" width="10.67" height="10.67"/>
      <rect class="cls-3" x="160" y="309.33" width="10.67" height="10.67"/>
      <rect class="cls-3" x="149.33" y="309.33" width="10.67" height="10.67"/>
      <rect class="cls-3" x="138.67" y="309.33" width="10.67" height="10.67"/>
      <rect class="cls-3" x="128" y="309.33" width="10.67" height="10.67"/>
      <rect class="cls-3" x="117.33" y="309.33" width="10.67" height="10.67"/>
      <rect class="cls-3" x="106.67" y="309.33" width="10.67" height="10.67"/>
      <rect class="cls-3" x="96" y="309.33" width="10.67" height="10.67"/>
      <rect class="cls-3" x="74.67" y="309.33" width="10.67" height="10.67"/>
      <rect class="cls-3" x="64" y="309.33" width="10.67" height="10.67"/>
      <rect class="cls-3" x="53.33" y="309.33" width="10.67" height="10.67"/>
      <rect class="cls-3" x="42.67" y="309.33" width="10.67" height="10.67"/>
      <rect class="cls-3" x="181.33" y="298.67" width="10.67" height="10.67"/>
      <rect class="cls-3" x="170.67" y="298.67" width="10.67" height="10.67"/>
      <rect class="cls-3" x="160" y="298.67" width="10.67" height="10.67"/>
      <rect class="cls-3" x="149.33" y="298.67" width="10.67" height="10.67"/>
      <rect class="cls-3" x="138.67" y="298.67" width="10.67" height="10.67"/>
      <rect class="cls-3" x="128" y="298.67" width="10.67" height="10.67"/>
      <rect class="cls-3" x="117.33" y="298.67" width="10.67" height="10.67"/>
      <rect class="cls-3" x="106.67" y="298.67" width="10.67" height="10.67"/>
      <rect class="cls-3" x="96" y="298.67" width="10.67" height="10.67"/>
      <rect class="cls-3" x="85.33" y="298.67" width="10.67" height="10.67"/>
      <rect class="cls-3" x="74.67" y="298.67" width="10.67" height="10.67"/>
      <rect class="cls-3" x="64" y="298.67" width="10.67" height="10.67"/>
      <rect class="cls-3" x="42.67" y="298.67" width="10.67" height="10.67"/>
      <rect class="cls-3" x="170.67" y="288" width="10.67" height="10.67"/>
      <rect class="cls-3" x="160" y="288" width="10.67" height="10.67"/>
      <rect class="cls-3" x="138.67" y="288" width="10.67" height="10.67"/>
      <rect class="cls-3" x="128" y="288" width="10.67" height="10.67"/>
      <rect class="cls-3" x="117.33" y="288" width="10.67" height="10.67"/>
      <rect class="cls-3" x="106.67" y="288" width="10.67" height="10.67"/>
      <rect class="cls-3" x="96" y="288" width="10.67" height="10.67"/>
      <rect class="cls-3" x="74.67" y="288" width="10.67" height="10.67"/>
      <rect class="cls-3" x="64" y="288" width="10.67" height="10.67"/>
      <rect class="cls-3" x="53.33" y="288" width="10.67" height="10.67"/>
      <rect class="cls-3" x="160" y="256" width="10.67" height="10.67"/>
      <rect class="cls-3" x="149.33" y="256" width="10.67" height="10.67"/>
      <rect class="cls-3" x="138.67" y="256" width="10.67" height="10.67"/>
      <rect class="cls-3" x="128" y="256" width="10.67" height="10.67"/>
      <rect class="cls-3" x="117.33" y="256" width="10.67" height="10.67"/>
      <rect class="cls-3" x="106.67" y="256" width="10.67" height="10.67"/>
      <rect class="cls-3" x="96" y="256" width="10.67" height="10.67"/>
      <rect class="cls-3" x="85.33" y="256" width="10.67" height="10.67"/>
      <rect class="cls-3" x="74.67" y="256" width="10.67" height="10.67"/>
      <rect class="cls-3" x="64" y="256" width="10.67" height="10.67"/>
      <rect class="cls-3" x="181.33" y="245.33" width="10.67" height="10.67"/>
      <rect class="cls-3" x="170.67" y="245.33" width="10.67" height="10.67"/>
      <rect class="cls-3" x="160" y="245.33" width="10.67" height="10.67"/>
      <rect class="cls-3" x="138.67" y="245.33" width="10.67" height="10.67"/>
      <rect class="cls-3" x="128" y="245.33" width="10.67" height="10.67"/>
      <rect class="cls-3" x="117.33" y="245.33" width="10.67" height="10.67"/>
      <rect class="cls-3" x="106.67" y="245.33" width="10.67" height="10.67"/>
      <rect class="cls-3" x="96" y="245.33" width="10.67" height="10.67"/>
      <rect class="cls-3" x="85.33" y="245.33" width="10.67" height="10.67"/>
      <rect class="cls-3" x="74.67" y="245.33" width="10.67" height="10.67"/>
      <rect class="cls-3" x="64" y="245.33" width="10.67" height="10.67"/>
      <rect class="cls-3" x="53.33" y="245.33" width="10.67" height="10.67"/>
      <rect class="cls-3" x="42.67" y="245.33" width="10.67" height="10.67"/>
      <rect class="cls-3" x="170.67" y="234.67" width="10.67" height="10.67"/>
      <rect class="cls-3" x="149.33" y="234.67" width="10.67" height="10.67"/>
      <rect class="cls-3" x="138.67" y="234.67" width="10.67" height="10.67"/>
      <rect class="cls-3" x="128" y="234.67" width="10.67" height="10.67"/>
      <rect class="cls-3" x="117.33" y="234.67" width="10.67" height="10.67"/>
      <rect class="cls-3" x="106.67" y="234.67" width="10.67" height="10.67"/>
      <rect class="cls-3" x="74.67" y="234.67" width="10.67" height="10.67"/>
      <rect class="cls-3" x="64" y="234.67" width="10.67" height="10.67"/>
      <rect class="cls-3" x="53.33" y="234.67" width="10.67" height="10.67"/>
      <rect class="cls-3" x="42.67" y="234.67" width="10.67" height="10.67"/>
      <rect class="cls-3" x="181.33" y="224" width="10.67" height="10.67"/>
      <rect class="cls-3" x="170.67" y="224" width="10.67" height="10.67"/>
      <rect class="cls-3" x="160" y="224" width="10.67" height="10.67"/>
      <rect class="cls-3" x="149.33" y="224" width="10.67" height="10.67"/>
      <rect class="cls-3" x="138.67" y="224" width="10.67" height="10.67"/>
      <rect class="cls-3" x="128" y="224" width="10.67" height="10.67"/>
      <rect class="cls-3" x="117.33" y="224" width="10.67" height="10.67"/>
      <rect class="cls-3" x="96" y="224" width="10.67" height="10.67"/>
      <rect class="cls-3" x="85.33" y="224" width="10.67" height="10.67"/>
      <rect class="cls-3" x="74.67" y="224" width="10.67" height="10.67"/>
      <rect class="cls-3" x="64" y="224" width="10.67" height="10.67"/>
      <rect class="cls-3" x="53.33" y="224" width="10.67" height="10.67"/>
      <rect class="cls-3" x="42.67" y="224" width="10.67" height="10.67"/>
      <rect class="cls-3" x="192" y="213.33" width="10.67" height="10.67"/>
      <rect class="cls-3" x="181.33" y="213.33" width="10.67" height="10.67"/>
      <rect class="cls-3" x="170.67" y="213.33" width="10.67" height="10.67"/>
      <rect class="cls-3" x="160" y="213.33" width="10.67" height="10.67"/>
      <rect class="cls-3" x="149.33" y="213.33" width="10.67" height="10.67"/>
      <rect class="cls-3" x="138.67" y="213.33" width="10.67" height="10.67"/>
      <rect class="cls-3" x="128" y="213.33" width="10.67" height="10.67"/>
      <rect class="cls-3" x="117.33" y="213.33" width="10.67" height="10.67"/>
      <rect class="cls-3" x="106.67" y="213.33" width="10.67" height="10.67"/>
      <rect class="cls-3" x="96" y="213.33" width="10.67" height="10.67"/>
      <rect class="cls-3" x="85.33" y="213.33" width="10.67" height="10.67"/>
      <rect class="cls-3" x="74.67" y="213.33" width="10.67" height="10.67"/>
      <rect class="cls-3" x="64" y="213.33" width="10.67" height="10.67"/>
      <rect class="cls-3" x="53.33" y="213.33" width="10.67" height="10.67"/>
      <rect class="cls-3" x="42.67" y="213.33" width="10.67" height="10.67"/>
      <rect class="cls-3" x="32" y="213.33" width="10.67" height="10.67"/>
      <rect class="cls-3" x="192" y="202.67" width="10.67" height="10.67"/>
      <rect class="cls-3" x="181.33" y="202.67" width="10.67" height="10.67"/>
      <rect class="cls-3" x="170.67" y="202.67" width="10.67" height="10.67"/>
      <rect class="cls-3" x="160" y="202.67" width="10.67" height="10.67"/>
      <rect class="cls-3" x="149.33" y="202.67" width="10.67" height="10.67"/>
      <rect class="cls-3" x="138.67" y="202.67" width="10.67" height="10.67"/>
      <rect class="cls-3" x="128" y="202.67" width="10.67" height="10.67"/>
      <rect class="cls-3" x="117.33" y="202.67" width="10.67" height="10.67"/>
      <rect class="cls-3" x="106.67" y="202.67" width="10.67" height="10.67"/>
      <rect class="cls-3" x="96" y="202.67" width="10.67" height="10.67"/>
      <rect class="cls-3" x="85.33" y="202.67" width="10.67" height="10.67"/>
      <rect class="cls-3" x="74.67" y="202.67" width="10.67" height="10.67"/>
      <rect class="cls-3" x="64" y="202.67" width="10.67" height="10.67"/>
      <rect class="cls-3" x="53.33" y="202.67" width="10.67" height="10.67"/>
      <rect class="cls-3" x="42.67" y="202.67" width="10.67" height="10.67"/>
      <rect class="cls-3" x="32" y="202.67" width="10.67" height="10.67"/>
      <rect class="cls-3" x="192" y="192" width="10.67" height="10.67"/>
      <rect class="cls-3" x="181.33" y="192" width="10.67" height="10.67"/>
      <rect class="cls-3" x="170.67" y="192" width="10.67" height="10.67"/>
      <rect class="cls-3" x="160" y="192" width="10.67" height="10.67"/>
      <rect class="cls-3" x="149.33" y="192" width="10.67" height="10.67"/>
      <rect class="cls-3" x="138.67" y="192" width="10.67" height="10.67"/>
      <rect class="cls-3" x="117.33" y="192" width="10.67" height="10.67"/>
      <rect class="cls-3" x="85.33" y="192" width="10.67" height="10.67"/>
      <rect class="cls-3" x="74.67" y="192" width="10.67" height="10.67"/>
      <rect class="cls-3" x="64" y="192" width="10.67" height="10.67"/>
      <rect class="cls-3" x="53.33" y="192" width="10.67" height="10.67"/>
      <rect class="cls-3" x="42.67" y="192" width="10.67" height="10.67"/>
      <rect class="cls-3" x="32" y="192" width="10.67" height="10.67"/>
      <rect class="cls-3" x="21.33" y="192" width="10.67" height="10.67"/>
      <rect class="cls-3" x="10.67" y="192" width="10.67" height="10.67"/>
      <rect class="cls-3" x="192" y="181.33" width="10.67" height="10.67"/>
      <rect class="cls-3" x="181.33" y="181.33" width="10.67" height="10.67"/>
      <rect class="cls-3" x="170.67" y="181.33" width="10.67" height="10.67"/>
      <rect class="cls-3" x="160" y="181.33" width="10.67" height="10.67"/>
      <rect class="cls-3" x="149.33" y="181.33" width="10.67" height="10.67"/>
      <rect class="cls-3" x="138.67" y="181.33" width="10.67" height="10.67"/>
      <rect class="cls-3" x="128" y="181.33" width="10.67" height="10.67"/>
      <rect class="cls-3" x="117.33" y="181.33" width="10.67" height="10.67"/>
      <rect class="cls-3" x="106.67" y="181.33" width="10.67" height="10.67"/>
      <rect class="cls-3" x="85.33" y="181.33" width="10.67" height="10.67"/>
      <rect class="cls-3" x="74.67" y="181.33" width="10.67" height="10.67"/>
      <rect class="cls-3" x="53.33" y="181.33" width="10.67" height="10.67"/>
      <rect class="cls-3" x="42.67" y="181.33" width="10.67" height="10.67"/>
      <rect class="cls-3" x="32" y="181.33" width="10.67" height="10.67"/>
      <rect class="cls-3" x="21.33" y="181.33" width="10.67" height="10.67"/>
      <rect class="cls-3" x="10.67" y="181.33" width="10.67" height="10.67"/>
      <rect class="cls-3" x="192" y="170.67" width="10.67" height="10.67"/>
      <rect class="cls-3" x="181.33" y="170.67" width="10.67" height="10.67"/>
      <rect class="cls-3" x="170.67" y="170.67" width="10.67" height="10.67"/>
      <rect class="cls-3" x="160" y="170.67" width="10.67" height="10.67"/>
      <rect class="cls-3" x="149.33" y="170.67" width="10.67" height="10.67"/>
      <rect class="cls-3" x="138.67" y="170.67" width="10.67" height="10.67"/>
      <rect class="cls-3" x="128" y="170.67" width="10.67" height="10.67"/>
      <rect class="cls-3" x="117.33" y="170.67" width="10.67" height="10.67"/>
      <rect class="cls-3" x="106.67" y="170.67" width="10.67" height="10.67"/>
      <rect class="cls-3" x="96" y="170.67" width="10.67" height="10.67"/>
      <rect class="cls-3" x="85.33" y="170.67" width="10.67" height="10.67"/>
      <rect class="cls-3" x="74.67" y="170.67" width="10.67" height="10.67"/>
      <rect class="cls-3" x="64" y="170.67" width="10.67" height="10.67"/>
      <rect class="cls-3" x="53.33" y="170.67" width="10.67" height="10.67"/>
      <rect class="cls-3" x="42.67" y="170.67" width="10.67" height="10.67"/>
      <rect class="cls-3" x="32" y="170.67" width="10.67" height="10.67"/>
      <rect class="cls-3" x="21.33" y="170.67" width="10.67" height="10.67"/>
      <rect class="cls-3" x="10.67" y="170.67" width="10.67" height="10.67"/>
      <rect class="cls-3" x="192" y="160" width="10.67" height="10.67"/>
      <rect class="cls-3" x="170.67" y="160" width="10.67" height="10.67"/>
      <rect class="cls-3" x="160" y="160" width="10.67" height="10.67"/>
      <rect class="cls-3" x="149.33" y="160" width="10.67" height="10.67"/>
      <rect class="cls-3" x="138.67" y="160" width="10.67" height="10.67"/>
      <rect class="cls-3" x="128" y="160" width="10.67" height="10.67"/>
      <rect class="cls-3" x="117.33" y="160" width="10.67" height="10.67"/>
      <rect class="cls-3" x="96" y="160" width="10.67" height="10.67"/>
      <rect class="cls-3" x="74.67" y="160" width="10.67" height="10.67"/>
      <rect class="cls-3" x="64" y="160" width="10.67" height="10.67"/>
      <rect class="cls-3" x="21.33" y="160" width="10.67" height="10.67"/>
      <rect class="cls-3" x="10.67" y="160" width="10.67" height="10.67"/>
      <rect class="cls-3" y="160" width="10.67" height="10.67"/>
      <rect class="cls-3" x="181.33" y="149.33" width="10.67" height="10.67"/>
      <rect class="cls-3" x="170.67" y="149.33" width="10.67" height="10.67"/>
      <rect class="cls-3" x="160" y="149.33" width="10.67" height="10.67"/>
      <rect class="cls-3" x="149.33" y="149.33" width="10.67" height="10.67"/>
      <rect class="cls-3" x="138.67" y="149.33" width="10.67" height="10.67"/>
      <rect class="cls-3" x="128" y="149.33" width="10.67" height="10.67"/>
      <rect class="cls-3" x="117.33" y="149.33" width="10.67" height="10.67"/>
      <rect class="cls-3" x="96" y="149.33" width="10.67" height="10.67"/>
      <rect class="cls-3" x="85.33" y="149.33" width="10.67" height="10.67"/>
      <rect class="cls-3" x="74.67" y="149.33" width="10.67" height="10.67"/>
      <rect class="cls-3" x="64" y="149.33" width="10.67" height="10.67"/>
      <rect class="cls-3" x="21.33" y="149.33" width="10.67" height="10.67"/>
      <rect class="cls-3" x="10.67" y="149.33" width="10.67" height="10.67"/>
      <rect class="cls-3" y="149.33" width="10.67" height="10.67"/>
      <rect class="cls-3" x="181.33" y="138.67" width="10.67" height="10.67"/>
      <rect class="cls-3" x="170.67" y="138.67" width="10.67" height="10.67"/>
      <rect class="cls-3" x="160" y="138.67" width="10.67" height="10.67"/>
      <rect class="cls-3" x="149.33" y="138.67" width="10.67" height="10.67"/>
      <rect class="cls-3" x="138.67" y="138.67" width="10.67" height="10.67"/>
      <rect class="cls-3" x="128" y="138.67" width="10.67" height="10.67"/>
      <rect class="cls-3" x="117.33" y="138.67" width="10.67" height="10.67"/>
      <rect class="cls-3" x="106.67" y="138.67" width="10.67" height="10.67"/>
      <rect class="cls-3" x="85.33" y="138.67" width="10.67" height="10.67"/>
      <rect class="cls-3" x="74.67" y="138.67" width="10.67" height="10.67"/>
      <rect class="cls-3" x="64" y="138.67" width="10.67" height="10.67"/>
      <rect class="cls-3" x="21.33" y="138.67" width="10.67" height="10.67"/>
      <rect class="cls-3" x="10.67" y="138.67" width="10.67" height="10.67"/>
      <rect class="cls-3" y="138.67" width="10.67" height="10.67"/>
      <rect class="cls-3" x="117.33" y="128" width="10.67" height="10.67"/>
      <rect class="cls-3" x="106.67" y="128" width="10.67" height="10.67"/>
      <rect class="cls-3" x="96" y="128" width="10.67" height="10.67"/>
      <rect class="cls-3" x="85.33" y="128" width="10.67" height="10.67"/>
      <rect class="cls-3" x="74.67" y="128" width="10.67" height="10.67"/>
      <rect class="cls-3" x="106.67" y="117.33" width="10.67" height="10.67"/>
      <rect class="cls-3" x="74.67" y="117.33" width="10.67" height="10.67"/>
      <rect class="cls-3" x="64" y="117.33" width="10.67" height="10.67"/>
      <rect class="cls-3" x="74.67" y="106.67" width="10.67" height="10.67"/>
      <rect class="cls-3" x="64" y="106.67" width="10.67" height="10.67"/>
      <rect class="cls-3" x="64" y="85.33" width="10.67" height="10.67"/>
      <rect class="cls-3" x="85.33" y="64" width="10.67" height="10.67"/>
      <rect class="cls-3" x="64" y="42.67" width="10.67" height="10.67"/>
      <rect class="cls-3" x="74.67" y="32" width="10.67" height="10.67"/>
      <rect class="cls-3" x="74.67" y="10.67" width="10.67" height="10.67"/>
      <rect class="cls-3" x="64" width="10.67" height="10.67"/>
    </g>
  </g>
</svg>