<?xml version="1.0" encoding="UTF-8"?>
<svg id="Layer_2" data-name="Layer 2" xmlns="http://www.w3.org/2000/svg" viewBox="0 0 700 700">
  <defs>
    <style>
      .cls-1 {
        fill: #000;
        stroke-width: 0px;
      }
    </style>
  </defs>
  <g>
    <rect class="cls-1" x="228.8" y="555.31" width="36.14" height="4.89"/>
    <rect class="cls-1" x="228.8" y="550.42" width="36.14" height="4.89"/>
    <rect class="cls-1" x="192.67" y="550.42" width="36.14" height="4.89"/>
    <rect class="cls-1" x="264.94" y="545.53" width="36.14" height="4.89"/>
    <rect class="cls-1" x="228.8" y="545.53" width="36.14" height="4.89"/>
    <rect class="cls-1" x="192.67" y="545.53" width="36.14" height="4.89"/>
    <rect class="cls-1" x="264.94" y="540.64" width="36.14" height="4.89"/>
    <rect class="cls-1" x="228.8" y="540.64" width="36.14" height="4.89"/>
    <rect class="cls-1" x="192.67" y="540.64" width="36.14" height="4.89"/>
    <rect class="cls-1" x="264.94" y="535.75" width="36.14" height="4.89"/>
    <rect class="cls-1" x="228.8" y="535.75" width="36.14" height="4.89"/>
    <rect class="cls-1" x="192.67" y="535.75" width="36.14" height="4.89"/>
    <rect class="cls-1" x="264.94" y="530.86" width="36.14" height="4.89"/>
    <rect class="cls-1" x="228.8" y="530.86" width="36.14" height="4.89"/>
    <rect class="cls-1" x="192.67" y="530.86" width="36.14" height="4.89"/>
    <rect class="cls-1" x="264.94" y="525.98" width="36.14" height="4.89"/>
    <rect class="cls-1" x="228.8" y="525.98" width="36.14" height="4.89"/>
    <rect class="cls-1" x="192.67" y="525.98" width="36.14" height="4.89"/>
    <rect class="cls-1" x="264.94" y="521.09" width="36.14" height="4.89"/>
    <rect class="cls-1" x="228.8" y="521.09" width="36.14" height="4.89"/>
    <rect class="cls-1" x="192.67" y="521.09" width="36.14" height="4.89"/>
    <rect class="cls-1" x="156.53" y="521.09" width="36.14" height="4.89"/>
    <rect class="cls-1" x="264.94" y="516.2" width="36.14" height="4.89"/>
    <rect class="cls-1" x="228.8" y="516.2" width="36.14" height="4.89"/>
    <rect class="cls-1" x="192.67" y="516.2" width="36.14" height="4.89"/>
    <rect class="cls-1" x="156.53" y="516.2" width="36.14" height="4.89"/>
    <rect class="cls-1" x="264.94" y="511.31" width="36.14" height="4.89"/>
    <rect class="cls-1" x="228.8" y="511.31" width="36.14" height="4.89"/>
    <rect class="cls-1" x="192.67" y="511.31" width="36.14" height="4.89"/>
    <rect class="cls-1" x="156.53" y="511.31" width="36.14" height="4.89"/>
    <rect class="cls-1" x="264.94" y="506.42" width="36.14" height="4.89"/>
    <rect class="cls-1" x="228.8" y="506.42" width="36.14" height="4.89"/>
    <rect class="cls-1" x="192.67" y="506.42" width="36.14" height="4.89"/>
    <rect class="cls-1" x="156.53" y="506.42" width="36.14" height="4.89"/>
    <rect class="cls-1" x="264.94" y="501.54" width="36.14" height="4.89"/>
    <rect class="cls-1" x="228.8" y="501.54" width="36.14" height="4.89"/>
    <rect class="cls-1" x="192.67" y="501.54" width="36.14" height="4.89"/>
    <rect class="cls-1" x="156.53" y="501.54" width="36.14" height="4.89"/>
    <rect class="cls-1" x="264.94" y="496.65" width="36.14" height="4.89"/>
    <rect class="cls-1" x="228.8" y="496.65" width="36.14" height="4.89"/>
    <rect class="cls-1" x="192.67" y="496.65" width="36.14" height="4.89"/>
    <rect class="cls-1" x="156.53" y="496.65" width="36.14" height="4.89"/>
    <rect class="cls-1" x="264.94" y="491.76" width="36.14" height="4.89"/>
    <rect class="cls-1" x="228.8" y="491.76" width="36.14" height="4.89"/>
    <rect class="cls-1" x="192.67" y="491.76" width="36.14" height="4.89"/>
    <rect class="cls-1" x="156.53" y="491.76" width="36.14" height="4.89"/>
    <rect class="cls-1" x="264.94" y="486.87" width="36.14" height="4.89"/>
    <rect class="cls-1" x="228.8" y="486.87" width="36.14" height="4.89"/>
    <rect class="cls-1" x="192.67" y="486.87" width="36.14" height="4.89"/>
    <rect class="cls-1" x="156.53" y="486.87" width="36.14" height="4.89"/>
    <rect class="cls-1" x="264.94" y="481.98" width="36.14" height="4.89"/>
    <rect class="cls-1" x="228.8" y="481.98" width="36.14" height="4.89"/>
    <rect class="cls-1" x="192.67" y="481.98" width="36.14" height="4.89"/>
    <rect class="cls-1" x="156.53" y="481.98" width="36.14" height="4.89"/>
    <rect class="cls-1" x="264.94" y="477.09" width="36.14" height="4.89"/>
    <rect class="cls-1" x="228.8" y="477.09" width="36.14" height="4.89"/>
    <rect class="cls-1" x="192.67" y="477.09" width="36.14" height="4.89"/>
    <rect class="cls-1" x="156.53" y="477.09" width="36.14" height="4.89"/>
    <rect class="cls-1" x="264.94" y="472.21" width="36.14" height="4.89"/>
    <rect class="cls-1" x="228.8" y="472.21" width="36.14" height="4.89"/>
    <rect class="cls-1" x="192.67" y="472.21" width="36.14" height="4.89"/>
    <rect class="cls-1" x="156.53" y="472.21" width="36.14" height="4.89"/>
    <rect class="cls-1" x="264.94" y="467.32" width="36.14" height="4.89"/>
    <rect class="cls-1" x="228.8" y="467.32" width="36.14" height="4.89"/>
    <rect class="cls-1" x="192.67" y="467.32" width="36.14" height="4.89"/>
    <rect class="cls-1" x="156.53" y="467.32" width="36.14" height="4.89"/>
    <rect class="cls-1" x="264.94" y="462.43" width="36.14" height="4.89"/>
    <rect class="cls-1" x="228.8" y="462.43" width="36.14" height="4.89"/>
    <rect class="cls-1" x="192.67" y="462.43" width="36.14" height="4.89"/>
    <rect class="cls-1" x="156.53" y="462.43" width="36.14" height="4.89"/>
    <rect class="cls-1" x="264.94" y="457.54" width="36.14" height="4.89"/>
    <rect class="cls-1" x="228.8" y="457.54" width="36.14" height="4.89"/>
    <rect class="cls-1" x="192.67" y="457.54" width="36.14" height="4.89"/>
    <rect class="cls-1" x="156.53" y="457.54" width="36.14" height="4.89"/>
    <rect class="cls-1" x="264.94" y="452.65" width="36.14" height="4.89"/>
    <rect class="cls-1" x="228.8" y="452.65" width="36.14" height="4.89"/>
    <rect class="cls-1" x="192.67" y="452.65" width="36.14" height="4.89"/>
    <rect class="cls-1" x="156.53" y="452.65" width="36.14" height="4.89"/>
    <rect class="cls-1" x="264.94" y="447.76" width="36.14" height="4.89"/>
    <rect class="cls-1" x="228.8" y="447.76" width="36.14" height="4.89"/>
    <rect class="cls-1" x="192.67" y="447.76" width="36.14" height="4.89"/>
    <rect class="cls-1" x="156.53" y="447.76" width="36.14" height="4.89"/>
    <rect class="cls-1" x="264.94" y="442.88" width="36.14" height="4.89"/>
    <rect class="cls-1" x="228.8" y="442.88" width="36.14" height="4.89"/>
    <rect class="cls-1" x="192.67" y="442.88" width="36.14" height="4.89"/>
    <rect class="cls-1" x="156.53" y="442.88" width="36.14" height="4.89"/>
    <rect class="cls-1" x="264.94" y="437.99" width="36.14" height="4.89"/>
    <rect class="cls-1" x="228.8" y="437.99" width="36.14" height="4.89"/>
    <rect class="cls-1" x="192.67" y="437.99" width="36.14" height="4.89"/>
    <rect class="cls-1" x="156.53" y="437.99" width="36.14" height="4.89"/>
    <rect class="cls-1" x="264.94" y="433.1" width="36.14" height="4.89"/>
    <rect class="cls-1" x="228.8" y="433.1" width="36.14" height="4.89"/>
    <rect class="cls-1" x="192.67" y="433.1" width="36.14" height="4.89"/>
    <rect class="cls-1" x="156.53" y="433.1" width="36.14" height="4.89"/>
    <rect class="cls-1" x="264.94" y="428.21" width="36.14" height="4.89"/>
    <rect class="cls-1" x="228.8" y="428.21" width="36.14" height="4.89"/>
    <rect class="cls-1" x="192.67" y="428.21" width="36.14" height="4.89"/>
    <rect class="cls-1" x="156.53" y="428.21" width="36.14" height="4.89"/>
    <rect class="cls-1" x="264.94" y="423.32" width="36.14" height="4.89"/>
    <rect class="cls-1" x="228.8" y="423.32" width="36.14" height="4.89"/>
    <rect class="cls-1" x="192.67" y="423.32" width="36.14" height="4.89"/>
    <rect class="cls-1" x="156.53" y="423.32" width="36.14" height="4.89"/>
    <rect class="cls-1" x="264.94" y="418.44" width="36.14" height="4.89"/>
    <rect class="cls-1" x="228.8" y="418.44" width="36.14" height="4.89"/>
    <rect class="cls-1" x="192.67" y="418.44" width="36.14" height="4.89"/>
    <rect class="cls-1" x="156.53" y="418.44" width="36.14" height="4.89"/>
    <rect class="cls-1" x="264.94" y="413.55" width="36.14" height="4.89"/>
    <rect class="cls-1" x="228.8" y="413.55" width="36.14" height="4.89"/>
    <rect class="cls-1" x="192.67" y="413.55" width="36.14" height="4.89"/>
    <rect class="cls-1" x="156.53" y="413.55" width="36.14" height="4.89"/>
    <rect class="cls-1" x="264.94" y="408.66" width="36.14" height="4.89"/>
    <rect class="cls-1" x="228.8" y="408.66" width="36.14" height="4.89"/>
    <rect class="cls-1" x="192.67" y="408.66" width="36.14" height="4.89"/>
    <rect class="cls-1" x="156.53" y="408.66" width="36.14" height="4.89"/>
    <rect class="cls-1" x="264.94" y="403.77" width="36.14" height="4.89"/>
    <rect class="cls-1" x="228.8" y="403.77" width="36.14" height="4.89"/>
    <rect class="cls-1" x="192.67" y="403.77" width="36.14" height="4.89"/>
    <rect class="cls-1" x="156.53" y="403.77" width="36.14" height="4.89"/>
    <rect class="cls-1" x="264.94" y="398.88" width="36.14" height="4.89"/>
    <rect class="cls-1" x="228.8" y="398.88" width="36.14" height="4.89"/>
    <rect class="cls-1" x="192.67" y="398.88" width="36.14" height="4.89"/>
    <rect class="cls-1" x="156.53" y="398.88" width="36.14" height="4.89"/>
    <rect class="cls-1" x="264.94" y="393.99" width="36.14" height="4.89"/>
    <rect class="cls-1" x="228.8" y="393.99" width="36.14" height="4.89"/>
    <rect class="cls-1" x="192.67" y="393.99" width="36.14" height="4.89"/>
    <rect class="cls-1" x="156.53" y="393.99" width="36.14" height="4.89"/>
    <rect class="cls-1" x="264.94" y="389.11" width="36.14" height="4.89"/>
    <rect class="cls-1" x="228.8" y="389.11" width="36.14" height="4.89"/>
    <rect class="cls-1" x="192.67" y="389.11" width="36.14" height="4.89"/>
    <rect class="cls-1" x="156.53" y="389.11" width="36.14" height="4.89"/>
    <rect class="cls-1" x="264.94" y="384.22" width="36.14" height="4.89"/>
    <rect class="cls-1" x="228.8" y="384.22" width="36.14" height="4.89"/>
    <rect class="cls-1" x="192.67" y="384.22" width="36.14" height="4.89"/>
    <rect class="cls-1" x="156.53" y="384.22" width="36.14" height="4.89"/>
    <rect class="cls-1" x="264.94" y="379.33" width="36.14" height="4.89"/>
    <rect class="cls-1" x="228.8" y="379.33" width="36.14" height="4.89"/>
    <rect class="cls-1" x="192.67" y="379.33" width="36.14" height="4.89"/>
    <rect class="cls-1" x="156.53" y="379.33" width="36.14" height="4.89"/>
    <rect class="cls-1" x="264.94" y="374.44" width="36.14" height="4.89"/>
    <rect class="cls-1" x="228.8" y="374.44" width="36.14" height="4.89"/>
    <rect class="cls-1" x="192.67" y="374.44" width="36.14" height="4.89"/>
    <rect class="cls-1" x="156.53" y="374.44" width="36.14" height="4.89"/>
    <rect class="cls-1" x="264.94" y="369.55" width="36.14" height="4.89"/>
    <rect class="cls-1" x="228.8" y="369.55" width="36.14" height="4.89"/>
    <rect class="cls-1" x="192.67" y="369.55" width="36.14" height="4.89"/>
    <rect class="cls-1" x="156.53" y="369.55" width="36.14" height="4.89"/>
    <rect class="cls-1" x="264.94" y="364.66" width="36.14" height="4.89"/>
    <rect class="cls-1" x="228.8" y="364.66" width="36.14" height="4.89"/>
    <rect class="cls-1" x="192.67" y="364.66" width="36.14" height="4.89"/>
    <rect class="cls-1" x="156.53" y="364.66" width="36.14" height="4.89"/>
    <rect class="cls-1" x="264.94" y="359.78" width="36.14" height="4.89"/>
    <rect class="cls-1" x="228.8" y="359.78" width="36.14" height="4.89"/>
    <rect class="cls-1" x="192.67" y="359.78" width="36.14" height="4.89"/>
    <rect class="cls-1" x="156.53" y="359.78" width="36.14" height="4.89"/>
    <rect class="cls-1" x="264.94" y="354.89" width="36.14" height="4.89"/>
    <rect class="cls-1" x="228.8" y="354.89" width="36.14" height="4.89"/>
    <rect class="cls-1" x="192.67" y="354.89" width="36.14" height="4.89"/>
    <rect class="cls-1" x="156.53" y="354.89" width="36.14" height="4.89"/>
    <rect class="cls-1" x="264.94" y="350" width="36.14" height="4.89"/>
    <rect class="cls-1" x="228.8" y="350" width="36.14" height="4.89"/>
    <rect class="cls-1" x="192.67" y="350" width="36.14" height="4.89"/>
    <rect class="cls-1" x="156.53" y="350" width="36.14" height="4.89"/>
    <rect class="cls-1" x="264.94" y="345.11" width="36.14" height="4.89"/>
    <rect class="cls-1" x="228.8" y="345.11" width="36.14" height="4.89"/>
    <rect class="cls-1" x="192.67" y="345.11" width="36.14" height="4.89"/>
    <rect class="cls-1" x="156.53" y="345.11" width="36.14" height="4.89"/>
    <rect class="cls-1" x="264.94" y="340.22" width="36.14" height="4.89"/>
    <rect class="cls-1" x="228.8" y="340.22" width="36.14" height="4.89"/>
    <rect class="cls-1" x="192.67" y="340.22" width="36.14" height="4.89"/>
    <rect class="cls-1" x="156.53" y="340.22" width="36.14" height="4.89"/>
    <rect class="cls-1" x="264.94" y="335.34" width="36.14" height="4.89"/>
    <rect class="cls-1" x="228.8" y="335.34" width="36.14" height="4.89"/>
    <rect class="cls-1" x="192.67" y="335.34" width="36.14" height="4.89"/>
    <rect class="cls-1" x="156.53" y="335.34" width="36.14" height="4.89"/>
    <rect class="cls-1" x="264.94" y="330.45" width="36.14" height="4.89"/>
    <rect class="cls-1" x="228.8" y="330.45" width="36.14" height="4.89"/>
    <rect class="cls-1" x="192.67" y="330.45" width="36.14" height="4.89"/>
    <rect class="cls-1" x="156.53" y="330.45" width="36.14" height="4.89"/>
    <rect class="cls-1" x="264.94" y="325.56" width="36.14" height="4.89"/>
    <rect class="cls-1" x="228.8" y="325.56" width="36.14" height="4.89"/>
    <rect class="cls-1" x="192.67" y="325.56" width="36.14" height="4.89"/>
    <rect class="cls-1" x="156.53" y="325.56" width="36.14" height="4.89"/>
    <rect class="cls-1" x="264.94" y="320.67" width="36.14" height="4.89"/>
    <rect class="cls-1" x="228.8" y="320.67" width="36.14" height="4.89"/>
    <rect class="cls-1" x="192.67" y="320.67" width="36.14" height="4.89"/>
    <rect class="cls-1" x="156.53" y="320.67" width="36.14" height="4.89"/>
    <rect class="cls-1" x="264.94" y="315.78" width="36.14" height="4.89"/>
    <rect class="cls-1" x="228.8" y="315.78" width="36.14" height="4.89"/>
    <rect class="cls-1" x="192.67" y="315.78" width="36.14" height="4.89"/>
    <rect class="cls-1" x="156.53" y="315.78" width="36.14" height="4.89"/>
    <rect class="cls-1" x="264.94" y="310.89" width="36.14" height="4.89"/>
    <rect class="cls-1" x="228.8" y="310.89" width="36.14" height="4.89"/>
    <rect class="cls-1" x="192.67" y="310.89" width="36.14" height="4.89"/>
    <rect class="cls-1" x="156.53" y="310.89" width="36.14" height="4.89"/>
    <rect class="cls-1" x="264.94" y="306.01" width="36.14" height="4.89"/>
    <rect class="cls-1" x="228.8" y="306.01" width="36.14" height="4.89"/>
    <rect class="cls-1" x="192.67" y="306.01" width="36.14" height="4.89"/>
    <rect class="cls-1" x="156.53" y="306.01" width="36.14" height="4.89"/>
    <rect class="cls-1" x="264.94" y="301.12" width="36.14" height="4.89"/>
    <rect class="cls-1" x="228.8" y="301.12" width="36.14" height="4.89"/>
    <rect class="cls-1" x="192.67" y="301.12" width="36.14" height="4.89"/>
    <rect class="cls-1" x="156.53" y="301.12" width="36.14" height="4.89"/>
    <rect class="cls-1" x="264.94" y="296.23" width="36.14" height="4.89"/>
    <rect class="cls-1" x="228.8" y="296.23" width="36.14" height="4.89"/>
    <rect class="cls-1" x="192.67" y="296.23" width="36.14" height="4.89"/>
    <rect class="cls-1" x="156.53" y="296.23" width="36.14" height="4.89"/>
    <rect class="cls-1" x="264.94" y="291.34" width="36.14" height="4.89"/>
    <rect class="cls-1" x="228.8" y="291.34" width="36.14" height="4.89"/>
    <rect class="cls-1" x="192.67" y="291.34" width="36.14" height="4.89"/>
    <rect class="cls-1" x="156.53" y="291.34" width="36.14" height="4.89"/>
    <rect class="cls-1" x="264.94" y="286.45" width="36.14" height="4.89"/>
    <rect class="cls-1" x="228.8" y="286.45" width="36.14" height="4.89"/>
    <rect class="cls-1" x="192.67" y="286.45" width="36.14" height="4.89"/>
    <rect class="cls-1" x="156.53" y="286.45" width="36.14" height="4.89"/>
    <rect class="cls-1" x="264.94" y="281.56" width="36.14" height="4.89"/>
    <rect class="cls-1" x="228.8" y="281.56" width="36.14" height="4.89"/>
    <rect class="cls-1" x="192.67" y="281.56" width="36.14" height="4.89"/>
    <rect class="cls-1" x="156.53" y="281.56" width="36.14" height="4.89"/>
    <rect class="cls-1" x="264.94" y="276.68" width="36.14" height="4.89"/>
    <rect class="cls-1" x="228.8" y="276.68" width="36.14" height="4.89"/>
    <rect class="cls-1" x="192.67" y="276.68" width="36.14" height="4.89"/>
    <rect class="cls-1" x="156.53" y="276.68" width="36.14" height="4.89"/>
    <rect class="cls-1" x="264.94" y="271.79" width="36.14" height="4.89"/>
    <rect class="cls-1" x="228.8" y="271.79" width="36.14" height="4.89"/>
    <rect class="cls-1" x="192.67" y="271.79" width="36.14" height="4.89"/>
    <rect class="cls-1" x="156.53" y="271.79" width="36.14" height="4.89"/>
    <rect class="cls-1" x="264.94" y="266.9" width="36.14" height="4.89"/>
    <rect class="cls-1" x="228.8" y="266.9" width="36.14" height="4.89"/>
    <rect class="cls-1" x="192.67" y="266.9" width="36.14" height="4.89"/>
    <rect class="cls-1" x="156.53" y="266.9" width="36.14" height="4.89"/>
    <rect class="cls-1" x="264.94" y="262.01" width="36.14" height="4.89"/>
    <rect class="cls-1" x="228.8" y="262.01" width="36.14" height="4.89"/>
    <rect class="cls-1" x="192.67" y="262.01" width="36.14" height="4.89"/>
    <rect class="cls-1" x="156.53" y="262.01" width="36.14" height="4.89"/>
    <rect class="cls-1" x="264.94" y="257.12" width="36.14" height="4.89"/>
    <rect class="cls-1" x="228.8" y="257.12" width="36.14" height="4.89"/>
    <rect class="cls-1" x="192.67" y="257.12" width="36.14" height="4.89"/>
    <rect class="cls-1" x="156.53" y="257.12" width="36.14" height="4.89"/>
    <rect class="cls-1" x="264.94" y="252.24" width="36.14" height="4.89"/>
    <rect class="cls-1" x="228.8" y="252.24" width="36.14" height="4.89"/>
    <rect class="cls-1" x="192.67" y="252.24" width="36.14" height="4.89"/>
    <rect class="cls-1" x="156.53" y="252.24" width="36.14" height="4.89"/>
    <rect class="cls-1" x="264.94" y="247.35" width="36.14" height="4.89"/>
    <rect class="cls-1" x="228.8" y="247.35" width="36.14" height="4.89"/>
    <rect class="cls-1" x="192.67" y="247.35" width="36.14" height="4.89"/>
    <rect class="cls-1" x="156.53" y="247.35" width="36.14" height="4.89"/>
    <rect class="cls-1" x="264.94" y="242.46" width="36.14" height="4.89"/>
    <rect class="cls-1" x="228.8" y="242.46" width="36.14" height="4.89"/>
    <rect class="cls-1" x="192.67" y="242.46" width="36.14" height="4.89"/>
    <rect class="cls-1" x="156.53" y="242.46" width="36.14" height="4.89"/>
    <rect class="cls-1" x="264.94" y="237.57" width="36.14" height="4.89"/>
    <rect class="cls-1" x="228.8" y="237.57" width="36.14" height="4.89"/>
    <rect class="cls-1" x="192.67" y="237.57" width="36.14" height="4.89"/>
    <rect class="cls-1" x="156.53" y="237.57" width="36.14" height="4.89"/>
    <rect class="cls-1" x="264.94" y="232.68" width="36.14" height="4.89"/>
    <rect class="cls-1" x="228.8" y="232.68" width="36.14" height="4.89"/>
    <rect class="cls-1" x="192.67" y="232.68" width="36.14" height="4.89"/>
    <rect class="cls-1" x="156.53" y="232.68" width="36.14" height="4.89"/>
    <rect class="cls-1" x="264.94" y="227.79" width="36.14" height="4.89"/>
    <rect class="cls-1" x="228.8" y="227.79" width="36.14" height="4.89"/>
    <rect class="cls-1" x="192.67" y="227.79" width="36.14" height="4.89"/>
    <rect class="cls-1" x="156.53" y="227.79" width="36.14" height="4.89"/>
    <rect class="cls-1" x="264.94" y="222.91" width="36.14" height="4.89"/>
    <rect class="cls-1" x="228.8" y="222.91" width="36.14" height="4.89"/>
    <rect class="cls-1" x="192.67" y="222.91" width="36.14" height="4.89"/>
    <rect class="cls-1" x="156.53" y="222.91" width="36.14" height="4.89"/>
    <rect class="cls-1" x="264.94" y="218.02" width="36.14" height="4.89"/>
    <rect class="cls-1" x="228.8" y="218.02" width="36.14" height="4.89"/>
    <rect class="cls-1" x="192.67" y="218.02" width="36.14" height="4.89"/>
    <rect class="cls-1" x="156.53" y="218.02" width="36.14" height="4.89"/>
    <rect class="cls-1" x="264.94" y="213.13" width="36.14" height="4.89"/>
    <rect class="cls-1" x="228.8" y="213.13" width="36.14" height="4.89"/>
    <rect class="cls-1" x="192.67" y="213.13" width="36.14" height="4.89"/>
    <rect class="cls-1" x="156.53" y="213.13" width="36.14" height="4.89"/>
    <rect class="cls-1" x="264.94" y="208.24" width="36.14" height="4.89"/>
    <rect class="cls-1" x="228.8" y="208.24" width="36.14" height="4.89"/>
    <rect class="cls-1" x="192.67" y="208.24" width="36.14" height="4.89"/>
    <rect class="cls-1" x="156.53" y="208.24" width="36.14" height="4.89"/>
    <rect class="cls-1" x="264.94" y="203.35" width="36.14" height="4.89"/>
    <rect class="cls-1" x="228.8" y="203.35" width="36.14" height="4.89"/>
    <rect class="cls-1" x="192.67" y="203.35" width="36.14" height="4.89"/>
    <rect class="cls-1" x="156.53" y="203.35" width="36.14" height="4.89"/>
    <rect class="cls-1" x="264.94" y="198.46" width="36.14" height="4.89"/>
    <rect class="cls-1" x="228.8" y="198.46" width="36.14" height="4.89"/>
    <rect class="cls-1" x="192.67" y="198.46" width="36.14" height="4.89"/>
    <rect class="cls-1" x="156.53" y="198.46" width="36.14" height="4.89"/>
    <rect class="cls-1" x="264.94" y="193.58" width="36.14" height="4.89"/>
    <rect class="cls-1" x="228.8" y="193.58" width="36.14" height="4.89"/>
    <rect class="cls-1" x="192.67" y="193.58" width="36.14" height="4.89"/>
    <rect class="cls-1" x="156.53" y="193.58" width="36.14" height="4.89"/>
    <rect class="cls-1" x="264.94" y="188.69" width="36.14" height="4.89"/>
    <rect class="cls-1" x="228.8" y="188.69" width="36.14" height="4.89"/>
    <rect class="cls-1" x="192.67" y="188.69" width="36.14" height="4.89"/>
    <rect class="cls-1" x="156.53" y="188.69" width="36.14" height="4.89"/>
    <rect class="cls-1" x="264.94" y="183.8" width="36.14" height="4.89"/>
    <rect class="cls-1" x="228.8" y="183.8" width="36.14" height="4.89"/>
    <rect class="cls-1" x="192.67" y="183.8" width="36.14" height="4.89"/>
    <rect class="cls-1" x="156.53" y="183.8" width="36.14" height="4.89"/>
    <rect class="cls-1" x="264.94" y="178.91" width="36.14" height="4.89"/>
    <rect class="cls-1" x="228.8" y="178.91" width="36.14" height="4.89"/>
    <rect class="cls-1" x="192.67" y="178.91" width="36.14" height="4.89"/>
    <rect class="cls-1" x="156.53" y="178.91" width="36.14" height="4.89"/>
    <rect class="cls-1" x="264.94" y="174.02" width="36.14" height="4.89"/>
    <rect class="cls-1" x="228.8" y="174.02" width="36.14" height="4.89"/>
    <rect class="cls-1" x="192.67" y="174.02" width="36.14" height="4.89"/>
    <rect class="cls-1" x="156.53" y="174.02" width="36.14" height="4.89"/>
    <rect class="cls-1" x="264.94" y="169.14" width="36.14" height="4.89"/>
    <rect class="cls-1" x="228.8" y="169.14" width="36.14" height="4.89"/>
    <rect class="cls-1" x="192.67" y="169.14" width="36.14" height="4.89"/>
    <rect class="cls-1" x="156.53" y="169.14" width="36.14" height="4.89"/>
    <rect class="cls-1" x="264.94" y="164.25" width="36.14" height="4.89"/>
    <rect class="cls-1" x="228.8" y="164.25" width="36.14" height="4.89"/>
    <rect class="cls-1" x="192.67" y="164.25" width="36.14" height="4.89"/>
    <rect class="cls-1" x="156.53" y="164.25" width="36.14" height="4.89"/>
    <rect class="cls-1" x="264.94" y="159.36" width="36.14" height="4.89"/>
    <rect class="cls-1" x="228.8" y="159.36" width="36.14" height="4.89"/>
    <rect class="cls-1" x="192.67" y="159.36" width="36.14" height="4.89"/>
    <rect class="cls-1" x="156.53" y="159.36" width="36.14" height="4.89"/>
    <rect class="cls-1" x="228.8" y="154.47" width="36.14" height="4.89"/>
    <rect class="cls-1" x="192.67" y="154.47" width="36.14" height="4.89"/>
    <rect class="cls-1" x="228.8" y="149.58" width="36.14" height="4.89"/>
    <rect class="cls-1" x="192.67" y="149.58" width="36.14" height="4.89"/>
    <rect class="cls-1" x="228.8" y="144.69" width="36.14" height="4.89"/>
    <rect class="cls-1" x="192.67" y="144.69" width="36.14" height="4.89"/>
    <rect class="cls-1" x="228.8" y="139.81" width="36.14" height="4.89"/>
    <rect class="cls-1" x="192.67" y="139.81" width="36.14" height="4.89"/>
  </g>
  <g>
    <rect class="cls-1" x="471.2" y="555.31" width="36.14" height="4.89"/>
    <rect class="cls-1" x="471.2" y="550.42" width="36.14" height="4.89"/>
    <rect class="cls-1" x="435.06" y="550.42" width="36.14" height="4.89"/>
    <rect class="cls-1" x="507.33" y="545.53" width="36.14" height="4.89"/>
    <rect class="cls-1" x="471.2" y="545.53" width="36.14" height="4.89"/>
    <rect class="cls-1" x="435.06" y="545.53" width="36.14" height="4.89"/>
    <rect class="cls-1" x="507.33" y="540.64" width="36.14" height="4.89"/>
    <rect class="cls-1" x="471.2" y="540.64" width="36.14" height="4.89"/>
    <rect class="cls-1" x="435.06" y="540.64" width="36.14" height="4.89"/>
    <rect class="cls-1" x="507.33" y="535.75" width="36.14" height="4.89"/>
    <rect class="cls-1" x="471.2" y="535.75" width="36.14" height="4.89"/>
    <rect class="cls-1" x="435.06" y="535.75" width="36.14" height="4.89"/>
    <rect class="cls-1" x="507.33" y="530.86" width="36.14" height="4.89"/>
    <rect class="cls-1" x="471.2" y="530.86" width="36.14" height="4.89"/>
    <rect class="cls-1" x="435.06" y="530.86" width="36.14" height="4.89"/>
    <rect class="cls-1" x="507.33" y="525.98" width="36.14" height="4.89"/>
    <rect class="cls-1" x="471.2" y="525.98" width="36.14" height="4.89"/>
    <rect class="cls-1" x="435.06" y="525.98" width="36.14" height="4.89"/>
    <rect class="cls-1" x="507.33" y="521.09" width="36.14" height="4.89"/>
    <rect class="cls-1" x="471.2" y="521.09" width="36.14" height="4.89"/>
    <rect class="cls-1" x="435.06" y="521.09" width="36.14" height="4.89"/>
    <rect class="cls-1" x="398.93" y="521.09" width="36.14" height="4.89"/>
    <rect class="cls-1" x="507.33" y="516.2" width="36.14" height="4.89"/>
    <rect class="cls-1" x="471.2" y="516.2" width="36.14" height="4.89"/>
    <rect class="cls-1" x="435.06" y="516.2" width="36.14" height="4.89"/>
    <rect class="cls-1" x="398.93" y="516.2" width="36.14" height="4.89"/>
    <rect class="cls-1" x="507.33" y="511.31" width="36.14" height="4.89"/>
    <rect class="cls-1" x="471.2" y="511.31" width="36.14" height="4.89"/>
    <rect class="cls-1" x="435.06" y="511.31" width="36.14" height="4.89"/>
    <rect class="cls-1" x="398.93" y="511.31" width="36.14" height="4.89"/>
    <rect class="cls-1" x="507.33" y="506.42" width="36.14" height="4.89"/>
    <rect class="cls-1" x="471.2" y="506.42" width="36.14" height="4.89"/>
    <rect class="cls-1" x="435.06" y="506.42" width="36.14" height="4.89"/>
    <rect class="cls-1" x="398.93" y="506.42" width="36.14" height="4.89"/>
    <rect class="cls-1" x="507.33" y="501.54" width="36.14" height="4.89"/>
    <rect class="cls-1" x="471.2" y="501.54" width="36.14" height="4.89"/>
    <rect class="cls-1" x="435.06" y="501.54" width="36.14" height="4.89"/>
    <rect class="cls-1" x="398.93" y="501.54" width="36.14" height="4.89"/>
    <rect class="cls-1" x="507.33" y="496.65" width="36.14" height="4.89"/>
    <rect class="cls-1" x="471.2" y="496.65" width="36.14" height="4.89"/>
    <rect class="cls-1" x="435.06" y="496.65" width="36.14" height="4.89"/>
    <rect class="cls-1" x="398.93" y="496.65" width="36.14" height="4.89"/>
    <rect class="cls-1" x="507.33" y="491.76" width="36.14" height="4.89"/>
    <rect class="cls-1" x="471.2" y="491.76" width="36.14" height="4.89"/>
    <rect class="cls-1" x="435.06" y="491.76" width="36.14" height="4.89"/>
    <rect class="cls-1" x="398.93" y="491.76" width="36.14" height="4.89"/>
    <rect class="cls-1" x="507.33" y="486.87" width="36.14" height="4.89"/>
    <rect class="cls-1" x="471.2" y="486.87" width="36.14" height="4.89"/>
    <rect class="cls-1" x="435.06" y="486.87" width="36.14" height="4.89"/>
    <rect class="cls-1" x="398.93" y="486.87" width="36.14" height="4.89"/>
    <rect class="cls-1" x="507.33" y="481.98" width="36.14" height="4.89"/>
    <rect class="cls-1" x="471.2" y="481.98" width="36.14" height="4.89"/>
    <rect class="cls-1" x="435.06" y="481.98" width="36.14" height="4.89"/>
    <rect class="cls-1" x="398.93" y="481.98" width="36.14" height="4.89"/>
    <rect class="cls-1" x="507.33" y="477.09" width="36.14" height="4.89"/>
    <rect class="cls-1" x="471.2" y="477.09" width="36.14" height="4.89"/>
    <rect class="cls-1" x="435.06" y="477.09" width="36.14" height="4.89"/>
    <rect class="cls-1" x="398.93" y="477.09" width="36.14" height="4.89"/>
    <rect class="cls-1" x="507.33" y="472.21" width="36.14" height="4.89"/>
    <rect class="cls-1" x="471.2" y="472.21" width="36.14" height="4.89"/>
    <rect class="cls-1" x="435.06" y="472.21" width="36.14" height="4.89"/>
    <rect class="cls-1" x="398.93" y="472.21" width="36.14" height="4.89"/>
    <rect class="cls-1" x="507.33" y="467.32" width="36.14" height="4.89"/>
    <rect class="cls-1" x="471.2" y="467.32" width="36.14" height="4.89"/>
    <rect class="cls-1" x="435.06" y="467.32" width="36.14" height="4.89"/>
    <rect class="cls-1" x="398.93" y="467.32" width="36.14" height="4.89"/>
    <rect class="cls-1" x="507.33" y="462.43" width="36.14" height="4.89"/>
    <rect class="cls-1" x="471.2" y="462.43" width="36.14" height="4.89"/>
    <rect class="cls-1" x="435.06" y="462.43" width="36.14" height="4.89"/>
    <rect class="cls-1" x="398.93" y="462.43" width="36.14" height="4.89"/>
    <rect class="cls-1" x="507.33" y="457.54" width="36.14" height="4.89"/>
    <rect class="cls-1" x="471.2" y="457.54" width="36.14" height="4.89"/>
    <rect class="cls-1" x="435.06" y="457.54" width="36.14" height="4.89"/>
    <rect class="cls-1" x="398.93" y="457.54" width="36.14" height="4.89"/>
    <rect class="cls-1" x="507.33" y="452.65" width="36.14" height="4.89"/>
    <rect class="cls-1" x="471.2" y="452.65" width="36.14" height="4.89"/>
    <rect class="cls-1" x="435.06" y="452.65" width="36.14" height="4.89"/>
    <rect class="cls-1" x="398.93" y="452.65" width="36.14" height="4.89"/>
    <rect class="cls-1" x="507.33" y="447.76" width="36.14" height="4.89"/>
    <rect class="cls-1" x="471.2" y="447.76" width="36.14" height="4.89"/>
    <rect class="cls-1" x="435.06" y="447.76" width="36.14" height="4.89"/>
    <rect class="cls-1" x="398.93" y="447.76" width="36.14" height="4.89"/>
    <rect class="cls-1" x="507.33" y="442.88" width="36.14" height="4.89"/>
    <rect class="cls-1" x="471.2" y="442.88" width="36.14" height="4.89"/>
    <rect class="cls-1" x="435.06" y="442.88" width="36.14" height="4.89"/>
    <rect class="cls-1" x="398.93" y="442.88" width="36.14" height="4.89"/>
    <rect class="cls-1" x="507.33" y="437.99" width="36.14" height="4.89"/>
    <rect class="cls-1" x="471.2" y="437.99" width="36.14" height="4.89"/>
    <rect class="cls-1" x="435.06" y="437.99" width="36.14" height="4.89"/>
    <rect class="cls-1" x="398.93" y="437.99" width="36.14" height="4.89"/>
    <rect class="cls-1" x="507.33" y="433.1" width="36.14" height="4.89"/>
    <rect class="cls-1" x="471.2" y="433.1" width="36.14" height="4.89"/>
    <rect class="cls-1" x="435.06" y="433.1" width="36.14" height="4.89"/>
    <rect class="cls-1" x="398.93" y="433.1" width="36.14" height="4.89"/>
    <rect class="cls-1" x="507.33" y="428.21" width="36.14" height="4.89"/>
    <rect class="cls-1" x="471.2" y="428.21" width="36.14" height="4.89"/>
    <rect class="cls-1" x="435.06" y="428.21" width="36.14" height="4.89"/>
    <rect class="cls-1" x="398.93" y="428.21" width="36.14" height="4.89"/>
    <rect class="cls-1" x="507.33" y="423.32" width="36.14" height="4.89"/>
    <rect class="cls-1" x="471.2" y="423.32" width="36.14" height="4.89"/>
    <rect class="cls-1" x="435.06" y="423.32" width="36.14" height="4.89"/>
    <rect class="cls-1" x="398.93" y="423.32" width="36.14" height="4.89"/>
    <rect class="cls-1" x="507.33" y="418.44" width="36.14" height="4.89"/>
    <rect class="cls-1" x="471.2" y="418.44" width="36.14" height="4.89"/>
    <rect class="cls-1" x="435.06" y="418.44" width="36.14" height="4.89"/>
    <rect class="cls-1" x="398.93" y="418.44" width="36.14" height="4.89"/>
    <rect class="cls-1" x="507.33" y="413.55" width="36.14" height="4.89"/>
    <rect class="cls-1" x="471.2" y="413.55" width="36.14" height="4.89"/>
    <rect class="cls-1" x="435.06" y="413.55" width="36.14" height="4.89"/>
    <rect class="cls-1" x="398.93" y="413.55" width="36.14" height="4.89"/>
    <rect class="cls-1" x="507.33" y="408.66" width="36.14" height="4.89"/>
    <rect class="cls-1" x="471.2" y="408.66" width="36.14" height="4.89"/>
    <rect class="cls-1" x="435.06" y="408.66" width="36.14" height="4.89"/>
    <rect class="cls-1" x="398.93" y="408.66" width="36.14" height="4.89"/>
    <rect class="cls-1" x="507.33" y="403.77" width="36.14" height="4.89"/>
    <rect class="cls-1" x="471.2" y="403.77" width="36.14" height="4.89"/>
    <rect class="cls-1" x="435.06" y="403.77" width="36.14" height="4.89"/>
    <rect class="cls-1" x="398.93" y="403.77" width="36.14" height="4.89"/>
    <rect class="cls-1" x="507.33" y="398.88" width="36.14" height="4.89"/>
    <rect class="cls-1" x="471.2" y="398.88" width="36.14" height="4.89"/>
    <rect class="cls-1" x="435.06" y="398.88" width="36.14" height="4.89"/>
    <rect class="cls-1" x="398.93" y="398.88" width="36.14" height="4.89"/>
    <rect class="cls-1" x="507.33" y="393.99" width="36.14" height="4.89"/>
    <rect class="cls-1" x="471.2" y="393.99" width="36.14" height="4.89"/>
    <rect class="cls-1" x="435.06" y="393.99" width="36.14" height="4.89"/>
    <rect class="cls-1" x="398.93" y="393.99" width="36.14" height="4.89"/>
    <rect class="cls-1" x="507.33" y="389.11" width="36.14" height="4.89"/>
    <rect class="cls-1" x="471.2" y="389.11" width="36.14" height="4.89"/>
    <rect class="cls-1" x="435.06" y="389.11" width="36.14" height="4.89"/>
    <rect class="cls-1" x="398.93" y="389.11" width="36.14" height="4.89"/>
    <rect class="cls-1" x="507.33" y="384.22" width="36.14" height="4.89"/>
    <rect class="cls-1" x="471.2" y="384.22" width="36.14" height="4.89"/>
    <rect class="cls-1" x="435.06" y="384.22" width="36.14" height="4.89"/>
    <rect class="cls-1" x="398.93" y="384.22" width="36.14" height="4.89"/>
    <rect class="cls-1" x="507.33" y="379.33" width="36.14" height="4.89"/>
    <rect class="cls-1" x="471.2" y="379.33" width="36.14" height="4.89"/>
    <rect class="cls-1" x="435.06" y="379.33" width="36.14" height="4.89"/>
    <rect class="cls-1" x="398.93" y="379.33" width="36.14" height="4.89"/>
    <rect class="cls-1" x="507.33" y="374.44" width="36.14" height="4.89"/>
    <rect class="cls-1" x="471.2" y="374.44" width="36.14" height="4.89"/>
    <rect class="cls-1" x="435.06" y="374.44" width="36.14" height="4.89"/>
    <rect class="cls-1" x="398.93" y="374.44" width="36.14" height="4.89"/>
    <rect class="cls-1" x="507.33" y="369.55" width="36.14" height="4.89"/>
    <rect class="cls-1" x="471.2" y="369.55" width="36.14" height="4.89"/>
    <rect class="cls-1" x="435.06" y="369.55" width="36.14" height="4.89"/>
    <rect class="cls-1" x="398.93" y="369.55" width="36.14" height="4.89"/>
    <rect class="cls-1" x="507.33" y="364.66" width="36.14" height="4.89"/>
    <rect class="cls-1" x="471.2" y="364.66" width="36.14" height="4.89"/>
    <rect class="cls-1" x="435.06" y="364.66" width="36.14" height="4.89"/>
    <rect class="cls-1" x="398.93" y="364.66" width="36.14" height="4.89"/>
    <rect class="cls-1" x="507.33" y="359.78" width="36.14" height="4.89"/>
    <rect class="cls-1" x="471.2" y="359.78" width="36.14" height="4.89"/>
    <rect class="cls-1" x="435.06" y="359.78" width="36.14" height="4.89"/>
    <rect class="cls-1" x="398.93" y="359.78" width="36.14" height="4.89"/>
    <rect class="cls-1" x="507.33" y="354.89" width="36.14" height="4.89"/>
    <rect class="cls-1" x="471.2" y="354.89" width="36.14" height="4.89"/>
    <rect class="cls-1" x="435.06" y="354.89" width="36.14" height="4.89"/>
    <rect class="cls-1" x="398.93" y="354.89" width="36.14" height="4.89"/>
    <rect class="cls-1" x="507.33" y="350" width="36.14" height="4.89"/>
    <rect class="cls-1" x="471.2" y="350" width="36.14" height="4.89"/>
    <rect class="cls-1" x="435.06" y="350" width="36.14" height="4.89"/>
    <rect class="cls-1" x="398.93" y="350" width="36.14" height="4.89"/>
    <rect class="cls-1" x="507.33" y="345.11" width="36.14" height="4.89"/>
    <rect class="cls-1" x="471.2" y="345.11" width="36.14" height="4.89"/>
    <rect class="cls-1" x="435.06" y="345.11" width="36.14" height="4.89"/>
    <rect class="cls-1" x="398.93" y="345.11" width="36.14" height="4.89"/>
    <rect class="cls-1" x="507.33" y="340.22" width="36.14" height="4.89"/>
    <rect class="cls-1" x="471.2" y="340.22" width="36.14" height="4.89"/>
    <rect class="cls-1" x="435.06" y="340.22" width="36.14" height="4.89"/>
    <rect class="cls-1" x="398.93" y="340.22" width="36.14" height="4.89"/>
    <rect class="cls-1" x="507.33" y="335.34" width="36.14" height="4.89"/>
    <rect class="cls-1" x="471.2" y="335.34" width="36.14" height="4.89"/>
    <rect class="cls-1" x="435.06" y="335.34" width="36.14" height="4.89"/>
    <rect class="cls-1" x="398.93" y="335.34" width="36.14" height="4.89"/>
    <rect class="cls-1" x="507.33" y="330.45" width="36.14" height="4.89"/>
    <rect class="cls-1" x="471.2" y="330.45" width="36.14" height="4.89"/>
    <rect class="cls-1" x="435.06" y="330.45" width="36.14" height="4.89"/>
    <rect class="cls-1" x="398.93" y="330.45" width="36.14" height="4.89"/>
    <rect class="cls-1" x="507.33" y="325.56" width="36.14" height="4.89"/>
    <rect class="cls-1" x="471.2" y="325.56" width="36.14" height="4.89"/>
    <rect class="cls-1" x="435.06" y="325.56" width="36.14" height="4.89"/>
    <rect class="cls-1" x="398.93" y="325.56" width="36.14" height="4.89"/>
    <rect class="cls-1" x="507.33" y="320.67" width="36.14" height="4.89"/>
    <rect class="cls-1" x="471.2" y="320.67" width="36.14" height="4.89"/>
    <rect class="cls-1" x="435.06" y="320.67" width="36.14" height="4.89"/>
    <rect class="cls-1" x="398.93" y="320.67" width="36.14" height="4.89"/>
    <rect class="cls-1" x="507.33" y="315.78" width="36.14" height="4.89"/>
    <rect class="cls-1" x="471.2" y="315.78" width="36.14" height="4.89"/>
    <rect class="cls-1" x="435.06" y="315.78" width="36.14" height="4.89"/>
    <rect class="cls-1" x="398.93" y="315.78" width="36.14" height="4.89"/>
    <rect class="cls-1" x="507.33" y="310.89" width="36.14" height="4.89"/>
    <rect class="cls-1" x="471.2" y="310.89" width="36.14" height="4.89"/>
    <rect class="cls-1" x="435.06" y="310.89" width="36.14" height="4.89"/>
    <rect class="cls-1" x="398.93" y="310.89" width="36.14" height="4.89"/>
    <rect class="cls-1" x="507.33" y="306.01" width="36.14" height="4.89"/>
    <rect class="cls-1" x="471.2" y="306.01" width="36.14" height="4.89"/>
    <rect class="cls-1" x="435.06" y="306.01" width="36.14" height="4.89"/>
    <rect class="cls-1" x="398.93" y="306.01" width="36.14" height="4.89"/>
    <rect class="cls-1" x="507.33" y="301.12" width="36.14" height="4.89"/>
    <rect class="cls-1" x="471.2" y="301.12" width="36.14" height="4.89"/>
    <rect class="cls-1" x="435.06" y="301.12" width="36.14" height="4.89"/>
    <rect class="cls-1" x="398.93" y="301.12" width="36.14" height="4.89"/>
    <rect class="cls-1" x="507.33" y="296.23" width="36.14" height="4.89"/>
    <rect class="cls-1" x="471.2" y="296.23" width="36.14" height="4.89"/>
    <rect class="cls-1" x="435.06" y="296.23" width="36.14" height="4.89"/>
    <rect class="cls-1" x="398.93" y="296.23" width="36.14" height="4.89"/>
    <rect class="cls-1" x="507.33" y="291.34" width="36.14" height="4.89"/>
    <rect class="cls-1" x="471.2" y="291.34" width="36.14" height="4.89"/>
    <rect class="cls-1" x="435.06" y="291.34" width="36.14" height="4.89"/>
    <rect class="cls-1" x="398.93" y="291.34" width="36.14" height="4.89"/>
    <rect class="cls-1" x="507.33" y="286.45" width="36.14" height="4.89"/>
    <rect class="cls-1" x="471.2" y="286.45" width="36.14" height="4.89"/>
    <rect class="cls-1" x="435.06" y="286.45" width="36.14" height="4.89"/>
    <rect class="cls-1" x="398.93" y="286.45" width="36.14" height="4.89"/>
    <rect class="cls-1" x="507.33" y="281.56" width="36.14" height="4.89"/>
    <rect class="cls-1" x="471.2" y="281.56" width="36.14" height="4.89"/>
    <rect class="cls-1" x="435.06" y="281.56" width="36.14" height="4.89"/>
    <rect class="cls-1" x="398.93" y="281.56" width="36.14" height="4.89"/>
    <rect class="cls-1" x="507.33" y="276.68" width="36.14" height="4.89"/>
    <rect class="cls-1" x="471.2" y="276.68" width="36.14" height="4.89"/>
    <rect class="cls-1" x="435.06" y="276.68" width="36.14" height="4.89"/>
    <rect class="cls-1" x="398.93" y="276.68" width="36.14" height="4.89"/>
    <rect class="cls-1" x="507.33" y="271.79" width="36.14" height="4.89"/>
    <rect class="cls-1" x="471.2" y="271.79" width="36.14" height="4.89"/>
    <rect class="cls-1" x="435.06" y="271.79" width="36.14" height="4.89"/>
    <rect class="cls-1" x="398.93" y="271.79" width="36.14" height="4.89"/>
    <rect class="cls-1" x="507.33" y="266.9" width="36.14" height="4.89"/>
    <rect class="cls-1" x="471.2" y="266.9" width="36.14" height="4.89"/>
    <rect class="cls-1" x="435.06" y="266.9" width="36.14" height="4.89"/>
    <rect class="cls-1" x="398.93" y="266.9" width="36.14" height="4.89"/>
    <rect class="cls-1" x="507.33" y="262.01" width="36.14" height="4.89"/>
    <rect class="cls-1" x="471.2" y="262.01" width="36.14" height="4.89"/>
    <rect class="cls-1" x="435.06" y="262.01" width="36.14" height="4.89"/>
    <rect class="cls-1" x="398.93" y="262.01" width="36.14" height="4.89"/>
    <rect class="cls-1" x="507.33" y="257.12" width="36.14" height="4.89"/>
    <rect class="cls-1" x="471.2" y="257.12" width="36.14" height="4.89"/>
    <rect class="cls-1" x="435.06" y="257.12" width="36.14" height="4.89"/>
    <rect class="cls-1" x="398.93" y="257.12" width="36.14" height="4.89"/>
    <rect class="cls-1" x="507.33" y="252.24" width="36.14" height="4.89"/>
    <rect class="cls-1" x="471.2" y="252.24" width="36.14" height="4.89"/>
    <rect class="cls-1" x="435.06" y="252.24" width="36.14" height="4.89"/>
    <rect class="cls-1" x="398.93" y="252.24" width="36.14" height="4.89"/>
    <rect class="cls-1" x="507.33" y="247.35" width="36.14" height="4.89"/>
    <rect class="cls-1" x="471.2" y="247.35" width="36.14" height="4.89"/>
    <rect class="cls-1" x="435.06" y="247.35" width="36.14" height="4.89"/>
    <rect class="cls-1" x="398.93" y="247.35" width="36.14" height="4.89"/>
    <rect class="cls-1" x="507.33" y="242.46" width="36.14" height="4.89"/>
    <rect class="cls-1" x="471.2" y="242.46" width="36.14" height="4.89"/>
    <rect class="cls-1" x="435.06" y="242.46" width="36.14" height="4.89"/>
    <rect class="cls-1" x="398.93" y="242.46" width="36.14" height="4.89"/>
    <rect class="cls-1" x="507.33" y="237.57" width="36.14" height="4.89"/>
    <rect class="cls-1" x="471.2" y="237.57" width="36.14" height="4.89"/>
    <rect class="cls-1" x="435.06" y="237.57" width="36.14" height="4.89"/>
    <rect class="cls-1" x="398.93" y="237.57" width="36.14" height="4.89"/>
    <rect class="cls-1" x="507.33" y="232.68" width="36.14" height="4.89"/>
    <rect class="cls-1" x="471.2" y="232.68" width="36.14" height="4.89"/>
    <rect class="cls-1" x="435.06" y="232.68" width="36.14" height="4.89"/>
    <rect class="cls-1" x="398.93" y="232.68" width="36.14" height="4.89"/>
    <rect class="cls-1" x="507.33" y="227.79" width="36.14" height="4.89"/>
    <rect class="cls-1" x="471.2" y="227.79" width="36.14" height="4.89"/>
    <rect class="cls-1" x="435.06" y="227.79" width="36.14" height="4.89"/>
    <rect class="cls-1" x="398.93" y="227.79" width="36.14" height="4.89"/>
    <rect class="cls-1" x="507.33" y="222.91" width="36.14" height="4.89"/>
    <rect class="cls-1" x="471.2" y="222.91" width="36.14" height="4.89"/>
    <rect class="cls-1" x="435.06" y="222.91" width="36.14" height="4.89"/>
    <rect class="cls-1" x="398.93" y="222.91" width="36.14" height="4.89"/>
    <rect class="cls-1" x="507.33" y="218.02" width="36.14" height="4.89"/>
    <rect class="cls-1" x="471.2" y="218.02" width="36.14" height="4.89"/>
    <rect class="cls-1" x="435.06" y="218.02" width="36.14" height="4.89"/>
    <rect class="cls-1" x="398.93" y="218.02" width="36.14" height="4.89"/>
    <rect class="cls-1" x="507.33" y="213.13" width="36.14" height="4.89"/>
    <rect class="cls-1" x="471.2" y="213.13" width="36.14" height="4.89"/>
    <rect class="cls-1" x="435.06" y="213.13" width="36.14" height="4.89"/>
    <rect class="cls-1" x="398.93" y="213.13" width="36.14" height="4.89"/>
    <rect class="cls-1" x="507.33" y="208.24" width="36.14" height="4.89"/>
    <rect class="cls-1" x="471.2" y="208.24" width="36.14" height="4.89"/>
    <rect class="cls-1" x="435.06" y="208.24" width="36.14" height="4.89"/>
    <rect class="cls-1" x="398.93" y="208.24" width="36.14" height="4.89"/>
    <rect class="cls-1" x="507.33" y="203.35" width="36.14" height="4.89"/>
    <rect class="cls-1" x="471.2" y="203.35" width="36.14" height="4.89"/>
    <rect class="cls-1" x="435.06" y="203.35" width="36.14" height="4.89"/>
    <rect class="cls-1" x="398.93" y="203.35" width="36.14" height="4.89"/>
    <rect class="cls-1" x="507.33" y="198.46" width="36.14" height="4.89"/>
    <rect class="cls-1" x="471.2" y="198.46" width="36.14" height="4.89"/>
    <rect class="cls-1" x="435.06" y="198.46" width="36.14" height="4.89"/>
    <rect class="cls-1" x="398.93" y="198.46" width="36.14" height="4.89"/>
    <rect class="cls-1" x="507.33" y="193.58" width="36.14" height="4.89"/>
    <rect class="cls-1" x="471.2" y="193.58" width="36.14" height="4.89"/>
    <rect class="cls-1" x="435.06" y="193.58" width="36.14" height="4.89"/>
    <rect class="cls-1" x="398.93" y="193.58" width="36.14" height="4.89"/>
    <rect class="cls-1" x="507.33" y="188.69" width="36.14" height="4.89"/>
    <rect class="cls-1" x="471.2" y="188.69" width="36.14" height="4.89"/>
    <rect class="cls-1" x="435.06" y="188.69" width="36.14" height="4.89"/>
    <rect class="cls-1" x="398.93" y="188.69" width="36.14" height="4.89"/>
    <rect class="cls-1" x="507.33" y="183.8" width="36.14" height="4.89"/>
    <rect class="cls-1" x="471.2" y="183.8" width="36.14" height="4.89"/>
    <rect class="cls-1" x="435.06" y="183.8" width="36.14" height="4.89"/>
    <rect class="cls-1" x="398.93" y="183.8" width="36.14" height="4.89"/>
    <rect class="cls-1" x="507.33" y="178.91" width="36.14" height="4.89"/>
    <rect class="cls-1" x="471.2" y="178.91" width="36.14" height="4.89"/>
    <rect class="cls-1" x="435.06" y="178.91" width="36.14" height="4.89"/>
    <rect class="cls-1" x="398.93" y="178.91" width="36.14" height="4.89"/>
    <rect class="cls-1" x="507.33" y="174.02" width="36.14" height="4.89"/>
    <rect class="cls-1" x="471.2" y="174.02" width="36.14" height="4.89"/>
    <rect class="cls-1" x="435.06" y="174.02" width="36.14" height="4.89"/>
    <rect class="cls-1" x="398.93" y="174.02" width="36.14" height="4.89"/>
    <rect class="cls-1" x="507.33" y="169.14" width="36.14" height="4.89"/>
    <rect class="cls-1" x="471.2" y="169.14" width="36.14" height="4.89"/>
    <rect class="cls-1" x="435.06" y="169.14" width="36.14" height="4.89"/>
    <rect class="cls-1" x="398.93" y="169.14" width="36.14" height="4.89"/>
    <rect class="cls-1" x="507.33" y="164.25" width="36.14" height="4.89"/>
    <rect class="cls-1" x="471.2" y="164.25" width="36.14" height="4.89"/>
    <rect class="cls-1" x="435.06" y="164.25" width="36.14" height="4.89"/>
    <rect class="cls-1" x="398.93" y="164.25" width="36.14" height="4.89"/>
    <rect class="cls-1" x="507.33" y="159.36" width="36.14" height="4.89"/>
    <rect class="cls-1" x="471.2" y="159.36" width="36.14" height="4.89"/>
    <rect class="cls-1" x="435.06" y="159.36" width="36.14" height="4.89"/>
    <rect class="cls-1" x="398.93" y="159.36" width="36.14" height="4.89"/>
    <rect class="cls-1" x="471.2" y="154.47" width="36.14" height="4.89"/>
    <rect class="cls-1" x="435.06" y="154.47" width="36.14" height="4.89"/>
    <rect class="cls-1" x="471.2" y="149.58" width="36.14" height="4.89"/>
    <rect class="cls-1" x="435.06" y="149.58" width="36.14" height="4.89"/>
    <rect class="cls-1" x="471.2" y="144.69" width="36.14" height="4.89"/>
    <rect class="cls-1" x="435.06" y="144.69" width="36.14" height="4.89"/>
    <rect class="cls-1" x="471.2" y="139.81" width="36.14" height="4.89"/>
    <rect class="cls-1" x="435.06" y="139.81" width="36.14" height="4.89"/>
  </g>
</svg>